<svg width="700" height="485" viewBox="0 0 700 485" fill="none" xmlns="http://www.w3.org/2000/svg">
<path opacity="0.2" d="M645.161 0H55.6453V485H645.161V0Z" fill="#6C63FF"/>
<path opacity="0.5" d="M555.645 45.2821H144.355V440.381H555.645V45.2821Z" fill="#6C63FF"/>
<path d="M700 69.6648H479.839V417.989H700V69.6648Z" fill="url(#paint0_linear)"/>
<path d="M220.161 70.9918H0V419.316H220.161V70.9918Z" fill="url(#paint1_linear)"/>
<path d="M692.742 74.9726H487.097V410.691H692.742V74.9726Z" fill="#6C63FF"/>
<path d="M7.25818 410.691H212.903L212.903 74.9726H7.25818L7.25818 410.691Z" fill="#6C63FF"/>
<path d="M179.032 105.492H41.1292V126.06H179.032V105.492Z" fill="url(#paint2_linear)"/>
<path d="M659.677 136.676H521.774V157.243H659.677V136.676Z" fill="url(#paint3_linear)"/>
<path d="M658.871 168.523H520.968V189.09H658.871V168.523Z" fill="url(#paint4_linear)"/>
<path d="M658.871 200.369H520.968V220.937H658.871V200.369Z" fill="url(#paint5_linear)"/>
<path d="M658.871 232.216H520.968V252.784H658.871V232.216Z" fill="url(#paint6_linear)"/>
<path d="M658.871 264.063H520.968V284.631H658.871V264.063Z" fill="url(#paint7_linear)"/>
<path d="M658.871 295.91H520.968V316.477H658.871V295.91Z" fill="url(#paint8_linear)"/>
<path d="M658.871 327.757H520.968V348.324H658.871V327.757Z" fill="url(#paint9_linear)"/>
<path d="M658.871 359.603H520.968V380.171H658.871V359.603Z" fill="url(#paint10_linear)"/>
<path d="M658.871 105.492H520.968V126.06H658.871V105.492Z" fill="url(#paint11_linear)"/>
<path d="M179.032 138.003H41.1292V158.57H179.032V138.003Z" fill="url(#paint12_linear)"/>
<path d="M179.032 169.186H41.1292V189.754H179.032V169.186Z" fill="url(#paint13_linear)"/>
<path d="M179.032 200.369H41.1292V220.937H179.032V200.369Z" fill="url(#paint14_linear)"/>
<path d="M179.032 232.216H41.1292V252.784H179.032V232.216Z" fill="url(#paint15_linear)"/>
<path d="M179.032 264.063H41.1292V284.631H179.032V264.063Z" fill="url(#paint16_linear)"/>
<path d="M176.613 108.146H44.3547V124.07H176.613V108.146Z" fill="white"/>
<path d="M176.21 139.33H43.9517V155.253H176.21V139.33Z" fill="white"/>
<path d="M176.21 171.176H43.9517V187.1H176.21V171.176Z" fill="white"/>
<path d="M176.21 203.023H43.9517V218.947H176.21V203.023Z" fill="white"/>
<path d="M176.21 234.87H43.9517V250.793H176.21V234.87Z" fill="white"/>
<path d="M176.21 266.717H43.9517V282.64H176.21V266.717Z" fill="white"/>
<path d="M179.032 295.91H41.1292V316.477H179.032V295.91Z" fill="url(#paint17_linear)"/>
<path d="M176.21 298.564H43.9517V314.487H176.21V298.564Z" fill="white"/>
<path d="M176.21 298.564H43.9517V314.487H176.21V298.564Z" fill="white"/>
<path d="M176.21 330.41H43.9517V346.334H176.21V330.41Z" fill="white"/>
<path d="M176.21 362.257H43.9517V378.181H176.21V362.257Z" fill="white"/>
<path d="M656.452 107.483H524.194V123.406H656.452V107.483Z" fill="white"/>
<path d="M656.452 139.33H524.194V155.253H656.452V139.33Z" fill="white"/>
<path d="M656.452 171.176H524.194V187.1H656.452V171.176Z" fill="white"/>
<path d="M656.452 203.023H524.194V218.947H656.452V203.023Z" fill="white"/>
<path d="M656.452 234.87H524.194V250.793H656.452V234.87Z" fill="white"/>
<path d="M656.452 266.717H524.194V282.64H656.452V266.717Z" fill="white"/>
<path d="M656.452 298.564H524.194V314.487H656.452V298.564Z" fill="white"/>
<path d="M656.452 330.41H524.194V346.334H656.452V330.41Z" fill="white"/>
<path d="M656.452 362.257H524.194V378.181H656.452V362.257Z" fill="white"/>
<path d="M592.742 427.941H106.452V453.153H592.742V427.941Z" fill="url(#paint18_linear)"/>
<path d="M589.516 430.595H110.484V450.499H589.516V430.595Z" fill="#6C63FF"/>
<path d="M593.548 33.1737H108.064V59.0492H593.548V33.1737Z" fill="url(#paint19_linear)"/>
<path d="M589.516 35.1642H110.484V55.0684H589.516V35.1642Z" fill="#6C63FF"/>
<path opacity="0.5" d="M468.548 74.9726H233.064V410.691H468.548V74.9726Z" fill="#263238"/>
<path d="M531.984 220.97C537.629 227.194 529.177 234.545 529.177 234.545L530.597 234.95C528.508 236.854 520.258 245.446 488.451 284.312C447.726 334.073 392.847 346.486 392.847 346.486C386.179 342.2 378.593 338.98 370.484 336.992V332.295C380.846 329.78 390.315 325.24 398.081 319.061C405.847 312.882 411.679 305.248 415.081 296.812C419.936 288.904 422.461 280.167 422.452 271.308C422.452 239.461 390.379 213.626 350.822 213.626C311.266 213.626 279.193 239.455 279.193 271.308C279.184 280.167 281.709 288.904 286.564 296.812C289.966 305.248 295.798 312.882 303.564 319.061C311.33 325.24 320.799 329.78 331.161 332.295V336.992C323.052 338.98 315.466 342.2 308.798 346.486C308.798 346.486 253.895 334.06 213.169 284.299C181.363 245.433 173.113 236.834 171.024 234.936L172.443 234.532C172.443 234.532 164.016 227.18 169.637 220.957C175.258 214.734 132.419 207.382 137.331 220.957C142.242 234.532 148.564 241.319 148.564 241.319C148.564 241.319 238.242 357.679 285.056 376.907C283.95 380.849 283.393 384.883 283.395 388.929V411.553H418.218V388.929C418.22 384.883 417.662 380.849 416.556 376.907C463.331 357.666 553.048 241.326 553.048 241.326C553.048 241.326 559.371 234.538 564.282 220.964C569.193 207.389 526.363 214.747 531.984 220.97Z" fill="url(#paint20_linear)"/>
<path d="M350.806 330.762C388.691 330.762 419.403 305.495 419.403 274.327C419.403 243.159 388.691 217.892 350.806 217.892C312.922 217.892 282.21 243.159 282.21 274.327C282.21 305.495 312.922 330.762 350.806 330.762Z" fill="#263238"/>
<path d="M350.806 336.302C386.464 336.302 415.371 312.52 415.371 283.184C415.371 253.848 386.464 230.066 350.806 230.066C315.148 230.066 286.242 253.848 286.242 283.184C286.242 312.52 315.148 336.302 350.806 336.302Z" fill="#F8C198"/>
<path d="M325.25 278.202C329.708 278.202 333.323 275.228 333.323 271.56C333.323 267.892 329.708 264.919 325.25 264.919C320.792 264.919 317.177 267.892 317.177 271.56C317.177 275.228 320.792 278.202 325.25 278.202Z" fill="#263238"/>
<path d="M377.71 278.202C382.168 278.202 385.782 275.228 385.782 271.56C385.782 267.892 382.168 264.919 377.71 264.919C373.251 264.919 369.637 267.892 369.637 271.56C369.637 275.228 373.251 278.202 377.71 278.202Z" fill="#263238"/>
<path d="M369.637 307.52C369.637 311.501 361.21 318.037 350.806 318.037C340.403 318.037 331.976 311.501 331.976 307.52C331.976 303.54 340.403 303.646 350.806 303.646C361.21 303.646 369.637 303.54 369.637 307.52Z" fill="white"/>
<path d="M327.266 273.776C328.754 273.776 329.96 272.784 329.96 271.56C329.96 270.336 328.754 269.344 327.266 269.344C325.778 269.344 324.573 270.336 324.573 271.56C324.573 272.784 325.778 273.776 327.266 273.776Z" fill="white"/>
<path d="M380.395 273.776C381.883 273.776 383.089 272.784 383.089 271.56C383.089 270.336 381.883 269.344 380.395 269.344C378.908 269.344 377.702 270.336 377.702 271.56C377.702 272.784 378.908 273.776 380.395 273.776Z" fill="white"/>
<path d="M357.258 253.699C353.323 253.699 349.79 250.886 349.371 247.668C349.235 246.051 349.703 244.437 350.711 243.044C351.72 241.651 353.222 240.544 355.016 239.873C355.383 239.717 355.789 239.63 356.202 239.621C357.557 239.621 358.226 240.947 358.661 242.002C360.016 245.267 362.419 248.451 366.194 249.964C369.968 251.477 375.242 250.701 377.234 247.662C371.895 245.705 369.613 239.561 372.718 235.487C373.919 233.915 375.79 232.581 376.169 230.75C376.863 227.432 372.444 225.017 368.532 224.022C357.242 221.149 317.887 220.831 315.718 234.691C313.444 249.314 344.863 255.637 357.258 253.699Z" fill="#263238"/>
<path d="M293.118 292.503C295.189 291.83 294.99 287.367 292.672 282.533C290.354 277.7 286.796 274.327 284.725 274.999C282.653 275.672 282.853 280.135 285.17 284.968C287.488 289.802 291.046 293.175 293.118 292.503Z" fill="#F8C198"/>
<path d="M416.424 284.933C418.741 280.1 418.941 275.637 416.869 274.964C414.798 274.292 411.24 277.665 408.922 282.499C406.604 287.332 406.404 291.795 408.476 292.468C410.548 293.14 414.106 289.767 416.424 284.933Z" fill="#F8C198"/>
<path d="M391.056 347.886C391.056 347.886 443.613 335.745 482.621 287.052C521.629 238.36 523.645 238.227 523.645 238.227L544.492 245.001C544.492 245.001 447.653 373.37 405.96 380.012C364.266 386.653 391.056 347.886 391.056 347.886Z" fill="#FF9800"/>
<path d="M521.637 238.367C521.637 238.367 529.702 231.174 524.331 225.097C518.96 219.02 559.976 211.828 555.266 225.097C550.557 238.367 544.508 245.001 544.508 245.001L521.637 238.367Z" fill="#F8C198"/>
<path d="M310.556 347.886C310.556 347.886 258 335.745 218.992 287.052C179.984 238.36 177.968 238.227 177.968 238.227L157.121 245.001C157.121 245.001 253.968 373.37 295.669 380.012C337.371 386.653 310.556 347.886 310.556 347.886Z" fill="#FF9800"/>
<path d="M179.976 238.367C179.976 238.367 171.911 231.174 177.282 225.097C182.653 219.02 141.637 211.828 146.347 225.097C151.056 238.367 157.105 245.001 157.105 245.001L179.976 238.367Z" fill="#F8C198"/>
<g opacity="0.2">
<path opacity="0.2" d="M372.815 227.419C372.427 229.25 370.557 230.577 369.363 232.156C366.645 235.726 368.057 240.888 372.04 243.436C371.468 242.241 371.232 240.955 371.35 239.675C371.469 238.395 371.939 237.153 372.726 236.044C373.927 234.472 375.798 233.138 376.178 231.307C376.613 229.231 375.04 227.505 372.847 226.265C372.904 226.649 372.893 227.038 372.815 227.419Z" fill="white"/>
<path opacity="0.2" d="M356.016 240.184C355.758 239.687 355.516 239.183 355.307 238.678C354.871 237.623 354.202 236.33 352.847 236.297C352.434 236.306 352.029 236.393 351.661 236.549C349.867 237.22 348.366 238.327 347.357 239.72C346.348 241.113 345.88 242.727 346.016 244.344C346.166 245.32 346.565 246.259 347.186 247.099C347.807 247.94 348.637 248.663 349.621 249.221C349.507 248.893 349.426 248.558 349.379 248.219C349.243 246.601 349.711 244.988 350.72 243.595C351.728 242.202 353.23 241.095 355.024 240.423C355.337 240.299 355.672 240.218 356.016 240.184Z" fill="white"/>
<path opacity="0.2" d="M350.331 250.694C340.524 251.032 324.702 247.954 316.903 241.405C322.726 251.596 346.782 255.862 357.226 254.224C355.801 254.184 354.414 253.837 353.204 253.218C351.994 252.598 351.003 251.728 350.331 250.694Z" fill="white"/>
<path opacity="0.2" d="M373.129 245.227C370.774 247.503 366.21 247.98 362.847 246.633C361.748 246.188 360.742 245.604 359.863 244.902C361.166 247.295 363.399 249.265 366.21 250.502C369.984 252.008 375.258 251.238 377.25 248.199C375.554 247.56 374.122 246.527 373.129 245.227Z" fill="white"/>
</g>
<path opacity="0.2" d="M541.815 245.001C541.815 245.001 444.968 373.37 403.226 380.012C400.814 380.409 398.369 380.655 395.911 380.748C399.271 380.827 402.63 380.58 405.919 380.012C447.621 373.377 544.468 245.001 544.468 245.001L542.307 244.371C542.008 244.789 541.815 245.001 541.815 245.001Z" fill="white"/>
<path opacity="0.2" d="M159.798 245.001C159.798 245.001 256.645 373.37 298.387 380.012C300.799 380.409 303.244 380.655 305.702 380.748C302.342 380.827 298.983 380.58 295.694 380.012C253.992 373.377 157.145 245.001 157.145 245.001L159.307 244.371C159.605 244.789 159.798 245.001 159.798 245.001Z" fill="white"/>
<path d="M350.806 336.302C359.285 336.302 367.681 337.676 375.514 340.345C383.348 343.015 390.465 346.927 396.46 351.86C402.456 356.792 407.212 362.648 410.456 369.093C413.701 375.537 415.371 382.444 415.371 389.42V411.553H286.242V389.42C286.242 382.444 287.912 375.537 291.157 369.093C294.401 362.648 299.157 356.792 305.152 351.86C311.148 346.927 318.265 343.015 326.099 340.345C333.932 337.676 342.328 336.302 350.806 336.302Z" fill="#FF9800"/>
<path opacity="0.2" d="M351.476 336.581C349.127 336.58 346.779 336.685 344.444 336.893C345.25 336.893 345.984 336.853 346.766 336.853C363.89 336.853 380.312 342.449 392.42 352.411C404.528 362.372 411.331 375.883 411.331 389.971V411.825H416.04V389.698C416.04 375.611 409.238 362.1 397.13 352.139C385.022 342.177 368.599 336.581 351.476 336.581Z" fill="white"/>
<path opacity="0.2" d="M350.137 336.581C352.486 336.58 354.834 336.685 357.169 336.893C356.363 336.893 355.629 336.853 354.847 336.853C337.723 336.853 321.301 342.449 309.193 352.411C297.085 362.372 290.282 375.883 290.282 389.971V411.825H285.573V389.698C285.573 375.611 292.375 362.1 304.483 352.139C316.591 342.177 333.013 336.581 350.137 336.581Z" fill="white"/>
<path d="M369.637 337.131C369.637 328.575 361.206 321.639 350.806 321.639C340.407 321.639 331.976 328.575 331.976 337.131V343.494C331.976 352.05 340.407 358.986 350.806 358.986C361.206 358.986 369.637 352.05 369.637 343.494V337.131Z" fill="#F8C198"/>
<defs>
<linearGradient id="paint0_linear" x1="589.919" y1="417.989" x2="589.919" y2="69.6648" gradientUnits="userSpaceOnUse">
<stop stop-color="#808080" stop-opacity="0.25"/>
<stop offset="0.54" stop-color="#808080" stop-opacity="0.12"/>
<stop offset="1" stop-color="#808080" stop-opacity="0.1"/>
</linearGradient>
<linearGradient id="paint1_linear" x1="30052" y1="220212" x2="30052" y2="37341.7" gradientUnits="userSpaceOnUse">
<stop stop-color="#808080" stop-opacity="0.25"/>
<stop offset="0.54" stop-color="#808080" stop-opacity="0.12"/>
<stop offset="1" stop-color="#808080" stop-opacity="0.1"/>
</linearGradient>
<linearGradient id="paint2_linear" x1="110.081" y1="126.06" x2="110.081" y2="105.492" gradientUnits="userSpaceOnUse">
<stop stop-opacity="0.12"/>
<stop offset="0.55" stop-opacity="0.09"/>
<stop offset="1" stop-opacity="0.02"/>
</linearGradient>
<linearGradient id="paint3_linear" x1="101536" y1="5011.22" x2="101536" y2="4373.62" gradientUnits="userSpaceOnUse">
<stop stop-opacity="0.12"/>
<stop offset="0.55" stop-opacity="0.09"/>
<stop offset="1" stop-opacity="0.02"/>
</linearGradient>
<linearGradient id="paint4_linear" x1="101397" y1="6030.32" x2="101397" y2="5392.72" gradientUnits="userSpaceOnUse">
<stop stop-opacity="0.12"/>
<stop offset="0.55" stop-opacity="0.09"/>
<stop offset="1" stop-opacity="0.02"/>
</linearGradient>
<linearGradient id="paint5_linear" x1="101397" y1="7049.42" x2="101397" y2="6411.82" gradientUnits="userSpaceOnUse">
<stop stop-opacity="0.12"/>
<stop offset="0.55" stop-opacity="0.09"/>
<stop offset="1" stop-opacity="0.02"/>
</linearGradient>
<linearGradient id="paint6_linear" x1="101397" y1="8068.51" x2="101397" y2="7430.91" gradientUnits="userSpaceOnUse">
<stop stop-opacity="0.12"/>
<stop offset="0.55" stop-opacity="0.09"/>
<stop offset="1" stop-opacity="0.02"/>
</linearGradient>
<linearGradient id="paint7_linear" x1="101397" y1="9087.6" x2="101397" y2="8450" gradientUnits="userSpaceOnUse">
<stop stop-opacity="0.12"/>
<stop offset="0.55" stop-opacity="0.09"/>
<stop offset="1" stop-opacity="0.02"/>
</linearGradient>
<linearGradient id="paint8_linear" x1="101397" y1="10106.7" x2="101397" y2="9469.11" gradientUnits="userSpaceOnUse">
<stop stop-opacity="0.12"/>
<stop offset="0.55" stop-opacity="0.09"/>
<stop offset="1" stop-opacity="0.02"/>
</linearGradient>
<linearGradient id="paint9_linear" x1="101397" y1="11125.8" x2="101397" y2="10488.2" gradientUnits="userSpaceOnUse">
<stop stop-opacity="0.12"/>
<stop offset="0.55" stop-opacity="0.09"/>
<stop offset="1" stop-opacity="0.02"/>
</linearGradient>
<linearGradient id="paint10_linear" x1="101397" y1="12144.9" x2="101397" y2="11507.3" gradientUnits="userSpaceOnUse">
<stop stop-opacity="0.12"/>
<stop offset="0.55" stop-opacity="0.09"/>
<stop offset="1" stop-opacity="0.02"/>
</linearGradient>
<linearGradient id="paint11_linear" x1="101397" y1="105.492" x2="101397" y2="105.492" gradientUnits="userSpaceOnUse">
<stop stop-opacity="0.12"/>
<stop offset="0.55" stop-opacity="0.09"/>
<stop offset="1" stop-opacity="0.02"/>
</linearGradient>
<linearGradient id="paint12_linear" x1="7074.19" y1="4734.89" x2="30655.6" y2="4734.89" gradientUnits="userSpaceOnUse">
<stop stop-opacity="0.12"/>
<stop offset="0.55" stop-opacity="0.09"/>
<stop offset="1" stop-opacity="0.02"/>
</linearGradient>
<linearGradient id="paint13_linear" x1="7074.19" y1="5732.75" x2="30655.6" y2="5732.75" gradientUnits="userSpaceOnUse">
<stop stop-opacity="0.12"/>
<stop offset="0.55" stop-opacity="0.09"/>
<stop offset="1" stop-opacity="0.02"/>
</linearGradient>
<linearGradient id="paint14_linear" x1="7074.19" y1="6730.62" x2="30655.6" y2="6730.62" gradientUnits="userSpaceOnUse">
<stop stop-opacity="0.12"/>
<stop offset="0.55" stop-opacity="0.09"/>
<stop offset="1" stop-opacity="0.02"/>
</linearGradient>
<linearGradient id="paint15_linear" x1="7074.19" y1="7749.71" x2="30655.6" y2="7749.71" gradientUnits="userSpaceOnUse">
<stop stop-opacity="0.12"/>
<stop offset="0.55" stop-opacity="0.09"/>
<stop offset="1" stop-opacity="0.02"/>
</linearGradient>
<linearGradient id="paint16_linear" x1="7074.19" y1="8768.8" x2="30655.6" y2="8768.8" gradientUnits="userSpaceOnUse">
<stop stop-opacity="0.12"/>
<stop offset="0.55" stop-opacity="0.09"/>
<stop offset="1" stop-opacity="0.02"/>
</linearGradient>
<linearGradient id="paint17_linear" x1="7074.19" y1="9787.91" x2="30655.6" y2="9787.91" gradientUnits="userSpaceOnUse">
<stop stop-opacity="0.12"/>
<stop offset="0.55" stop-opacity="0.09"/>
<stop offset="1" stop-opacity="0.02"/>
</linearGradient>
<linearGradient id="paint18_linear" x1="64296.8" y1="17168.7" x2="357530" y2="17168.7" gradientUnits="userSpaceOnUse">
<stop stop-color="#808080" stop-opacity="0.25"/>
<stop offset="0.54" stop-color="#808080" stop-opacity="0.12"/>
<stop offset="1" stop-color="#808080" stop-opacity="0.1"/>
</linearGradient>
<linearGradient id="paint19_linear" x1="211294" y1="2336.09" x2="211294" y2="1326.95" gradientUnits="userSpaceOnUse">
<stop stop-color="#808080" stop-opacity="0.25"/>
<stop offset="0.54" stop-color="#808080" stop-opacity="0.12"/>
<stop offset="1" stop-color="#808080" stop-opacity="0.1"/>
</linearGradient>
<linearGradient id="paint20_linear" x1="257207" y1="139948" x2="257207" y2="80707.3" gradientUnits="userSpaceOnUse">
<stop stop-color="#808080" stop-opacity="0.25"/>
<stop offset="0.54" stop-color="#808080" stop-opacity="0.12"/>
<stop offset="1" stop-color="#808080" stop-opacity="0.1"/>
</linearGradient>
</defs>
</svg>
