<svg width="736" height="501" viewBox="0 0 736 501" fill="none" xmlns="http://www.w3.org/2000/svg">
<g clip-path="url(#clip0)">
<path d="M563.499 495.335C554.076 486.269 548.353 471.948 549.854 458.007C551.355 444.065 560.651 431.249 572.71 428.288C584.77 425.328 598.516 433.523 602.179 446.936C604.195 421.077 606.518 394.135 618.593 372.114C629.526 352.175 648.463 337.907 668.986 335.355C689.51 332.802 711.118 342.443 723.918 360.886C736.718 379.33 739.852 406.143 730.887 427.317C724.283 442.916 712.117 454.525 699.369 463.969C658.177 494.23 608.772 506.536 560.245 498.622L563.499 495.335Z" fill="#F2F2F2"/>
<path d="M703.623 342.977C686.688 358.681 671.153 376.246 657.241 395.416C635.469 425.314 617.851 458.836 605 494.813C604.06 497.437 607.803 498.58 608.733 495.985C629.759 437.515 663.324 385.98 706.36 346.093C708.292 344.302 705.539 341.2 703.623 342.977Z" fill="white"/>
<path d="M236.93 492.871C249.873 480.42 257.734 460.75 255.672 441.602C253.611 422.453 240.842 404.85 224.278 400.783C207.715 396.717 188.834 407.973 183.803 426.395C181.034 390.879 177.844 353.874 161.259 323.628C146.242 296.241 120.232 276.645 92.0433 273.139C63.8544 269.633 34.1751 282.874 16.5947 308.206C-0.985645 333.539 -5.29013 370.366 7.02271 399.45C16.0932 420.875 32.8041 436.819 50.313 449.791C106.173 491.175 175.466 508.435 241.4 497.387" fill="#F2F2F2"/>
<path d="M44.4703 283.608C67.7296 305.178 89.0676 329.303 108.176 355.633C127.287 381.936 144.112 410.288 158.415 440.29C166.41 457.12 173.591 474.434 179.928 492.155C181.22 495.76 176.079 497.329 174.801 493.764C163.577 462.522 149.691 432.607 133.341 404.449C117.071 376.393 98.4485 350.2 77.736 326.238C66.0209 312.692 53.6605 299.89 40.7108 287.889C38.0564 285.428 41.8379 281.167 44.4703 283.608L44.4703 283.608Z" fill="white"/>
<path d="M528.313 499.903H219.531V139.183C219.531 62.4371 274.369 0 341.775 0H406.069C473.475 0 528.313 62.4371 528.313 139.183V499.903Z" fill="#F2F2F2"/>
<path d="M464.018 499.903H219.531V139.183C219.464 109.776 227.642 81.1118 242.876 57.3643C243.438 56.4928 243.998 55.6326 244.576 54.7818C251.944 43.7782 260.713 34.0876 270.593 26.0296C271.151 25.5673 271.711 25.113 272.28 24.6586C280.547 18.1449 289.49 12.82 298.905 8.80526C299.464 8.56398 300.033 8.32224 300.602 8.09036C309.117 4.63061 317.944 2.26069 326.919 1.02437C327.476 0.937824 328.047 0.870103 328.618 0.80238C337.365 -0.262414 346.186 -0.262414 354.933 0.80238C355.502 0.870103 356.074 0.937816 356.637 1.02529C365.61 2.26169 374.434 4.63132 382.947 8.09041C383.516 8.32228 384.086 8.56401 384.646 8.80576C393.945 12.7699 402.783 18.0153 410.962 24.4249C411.53 24.8694 412.099 25.3237 412.659 25.778C418.197 30.2788 423.399 35.293 428.211 40.7693C432.07 45.1619 435.667 49.8442 438.976 54.7847C439.551 55.6327 440.112 56.4929 440.672 57.363C455.907 81.1107 464.086 109.775 464.018 139.183V499.903Z" fill="#CCCCCC"/>
<path d="M444.138 338.566C451.613 338.566 457.674 331.667 457.674 323.155C457.674 314.644 451.613 307.744 444.138 307.744C436.662 307.744 430.602 314.644 430.602 323.155C430.602 331.667 436.662 338.566 444.138 338.566Z" fill="#6C63FF"/>
<path d="M503.017 489.099H492.645L487.711 443.551L503.019 443.552L503.017 489.099Z" fill="#FFB8B8"/>
<path d="M485.237 485.725H505.239V500.064H472.643C472.643 498.181 472.969 496.316 473.602 494.577C474.235 492.837 475.162 491.256 476.332 489.925C477.501 488.593 478.889 487.537 480.417 486.816C481.945 486.096 483.583 485.725 485.237 485.725Z" fill="#2F2E41"/>
<path d="M554.622 489.099H544.25L539.315 443.551L554.623 443.552L554.622 489.099Z" fill="#FFB8B8"/>
<path d="M536.842 485.725H556.844V500.064H524.248C524.248 498.181 524.573 496.316 525.206 494.577C525.839 492.837 526.767 491.256 527.936 489.925C529.106 488.593 530.494 487.537 532.022 486.816C533.55 486.096 535.188 485.725 536.842 485.725Z" fill="#2F2E41"/>
<path d="M450.988 326.208C450.242 324.957 449.746 323.534 449.535 322.04C449.324 320.547 449.403 319.019 449.767 317.564C450.131 316.109 450.771 314.763 451.641 313.62C452.511 312.477 453.591 311.565 454.804 310.948L490.061 200.308L507.409 211.088L467.154 316.819C467.928 319.209 467.906 321.838 467.092 324.21C466.277 326.582 464.726 328.532 462.734 329.689C460.741 330.846 458.445 331.131 456.28 330.49C454.115 329.848 452.233 328.325 450.988 326.208Z" fill="#FFB8B8"/>
<path d="M549.324 346.998C548.171 346.246 547.177 345.215 546.413 343.978C545.648 342.741 545.131 341.328 544.897 339.839C544.664 338.349 544.72 336.82 545.062 335.358C545.404 333.897 546.023 332.538 546.876 331.378L535.954 214.34L555.697 215.367L560.237 330.489C561.853 332.25 562.846 334.625 563.027 337.163C563.208 339.702 562.565 342.228 561.22 344.263C559.875 346.297 557.921 347.7 555.729 348.204C553.536 348.708 551.257 348.279 549.324 346.998Z" fill="#FFB8B8"/>
<path d="M517.827 179.814C529.303 179.814 538.605 169.223 538.605 156.157C538.605 143.092 529.303 132.5 517.827 132.5C506.352 132.5 497.049 143.092 497.049 156.157C497.049 169.223 506.352 179.814 517.827 179.814Z" fill="#FFB8B8"/>
<path d="M549.191 320.38H486.549L486.624 319.825C486.737 318.995 497.789 236.566 489.638 209.6C488.82 206.95 488.892 204.049 489.84 201.455C490.787 198.862 492.544 196.76 494.772 195.553H494.772C506.423 189.306 528.787 181.614 547.663 200.281C550.44 203.073 552.609 206.563 553.998 210.474C555.387 214.385 555.958 218.611 555.665 222.816L549.191 320.38Z" fill="#6C63FF"/>
<path d="M498.58 248.748L470.378 242.234L483.598 206.567C484.389 203.112 486.351 200.156 489.054 198.346C491.757 196.537 494.98 196.021 498.016 196.914C501.052 197.806 503.653 200.033 505.249 203.106C506.845 206.179 507.305 209.848 506.528 213.307L498.58 248.748Z" fill="#6C63FF"/>
<path d="M534.7 260.844L533.005 216.593C531.719 208.274 535.901 200.411 542.334 199.125C548.768 197.845 555.05 203.614 556.342 211.994L562.714 253.342L534.7 260.844Z" fill="#6C63FF"/>
<path d="M547.107 315.082C557.186 358.789 558.286 414.359 555.567 474.974L542.031 473.048L517.498 357.463L503.962 474.974L488.735 474.011C484.185 410.411 479.756 355.811 487.043 319.898L547.107 315.082Z" fill="#2F2E41"/>
<path d="M531.518 174.44C527.642 179.142 520.443 176.618 519.938 170.195C519.899 169.697 519.901 169.195 519.947 168.697C520.208 165.852 521.651 163.269 521.305 160.265C521.227 159.518 520.982 158.805 520.595 158.196C517.506 153.486 510.255 160.302 507.34 156.039C505.552 153.424 507.653 149.309 506.282 146.387C504.471 142.531 499.109 144.433 495.746 142.321C492.004 139.971 492.228 133.435 494.691 129.46C497.695 124.611 502.961 122.024 508.162 121.651C513.363 121.278 518.528 122.879 523.383 125.034C528.9 127.481 534.37 130.864 537.765 136.387C541.894 143.104 542.291 152.134 540.226 159.987C538.97 164.765 534.684 170.601 531.518 174.44Z" fill="#2F2E41"/>
<path d="M710.605 500.523H86.0254C85.7587 500.522 85.5033 500.401 85.315 500.186C85.1267 499.971 85.021 499.68 85.021 499.376C85.021 499.073 85.1267 498.781 85.315 498.566C85.5033 498.351 85.7587 498.23 86.0254 498.229H710.605C710.872 498.23 711.127 498.351 711.315 498.566C711.504 498.781 711.609 499.073 711.609 499.376C711.609 499.68 711.504 499.971 711.315 500.186C711.127 500.401 710.872 500.522 710.605 500.523Z" fill="#3F3D56"/>
<path d="M396.763 395.396H286.786C285.338 395.405 283.946 394.759 282.915 393.601C281.884 392.442 281.299 390.865 281.287 389.216V109.724C281.299 108.075 281.884 106.498 282.915 105.34C283.946 104.181 285.338 103.536 286.786 103.545H396.763C398.212 103.536 399.604 104.181 400.635 105.34C401.666 106.498 402.251 108.075 402.262 109.724V389.216C402.251 390.865 401.666 392.442 400.635 393.601C399.604 394.759 398.212 395.405 396.763 395.396Z" fill="white"/>
<path d="M402.262 193.979H281.287V195.906H402.262V193.979Z" fill="#CCCCCC"/>
<path d="M402.685 303.891H281.71V305.818H402.685V303.891Z" fill="#CCCCCC"/>
<path d="M321.048 103.545H319.356V396.359H321.048V103.545Z" fill="#CCCCCC"/>
<path d="M363.347 103.545H361.655V396.359H363.347V103.545Z" fill="#CCCCCC"/>
</g>
<defs>
<clipPath id="clip0">
<rect width="736" height="501" fill="white"/>
</clipPath>
</defs>
</svg>
