<svg width="75" height="75" viewBox="0 0 75 75" fill="none" xmlns="http://www.w3.org/2000/svg">
<g opacity="0.5">
<path opacity="0.5" d="M37.5 75C58.2107 75 75 58.2107 75 37.5C75 16.7893 58.2107 0 37.5 0C16.7893 0 0 16.7893 0 37.5C0 58.2107 16.7893 75 37.5 75Z" fill="url(#paint0_linear)"/>
</g>
<path d="M37.5731 73.9695C57.847 73.9695 74.2822 57.5342 74.2822 37.2603C74.2822 16.9864 57.847 0.551147 37.5731 0.551147C17.2991 0.551147 0.863892 16.9864 0.863892 37.2603C0.863892 57.5342 17.2991 73.9695 37.5731 73.9695Z" fill="#F5F5F5"/>
<path d="M37.6074 74.1146C44.7804 74.1263 51.7981 72.0261 57.7854 68.076C56.4327 60.6834 51.2847 60.2622 51.2847 60.2622H22.8965C22.8965 60.2622 18.0387 60.6608 16.5215 67.4614C22.6944 71.8035 30.0604 74.1277 37.6074 74.1146Z" fill="#6C63FF"/>
<path d="M37.2175 54.2053C47.0031 54.2053 54.936 46.2724 54.936 36.4868C54.936 26.7011 47.0031 18.7683 37.2175 18.7683C27.4319 18.7683 19.499 26.7011 19.499 36.4868C19.499 46.2724 27.4319 54.2053 37.2175 54.2053Z" fill="#333333"/>
<path opacity="0.1" d="M31.499 51.245H42.8522V60.3277C42.8522 61.8329 42.2544 63.2764 41.1903 64.3409C40.1262 65.4054 38.6829 66.0037 37.1777 66.0043C35.6722 66.0043 34.2284 65.4062 33.1638 64.3416C32.0992 63.2771 31.5012 61.8332 31.5012 60.3277V51.245H31.499Z" fill="black"/>
<path d="M31.859 50.8239H42.4966C42.592 50.8239 42.6836 50.8618 42.7511 50.9293C42.8186 50.9968 42.8565 51.0883 42.8565 51.1838V59.9066C42.8567 60.6523 42.7099 61.3908 42.4245 62.0798C42.1392 62.7687 41.7209 63.3947 41.1935 63.922C40.6662 64.4492 40.0401 64.8674 39.351 65.1527C38.662 65.4379 37.9235 65.5845 37.1778 65.5842C35.6723 65.5842 34.2284 64.9862 33.1639 63.9216C32.0993 62.857 31.5012 61.4132 31.5012 59.9077V51.1838C31.5012 51.0887 31.5388 50.9975 31.6059 50.93C31.6729 50.8626 31.7639 50.8244 31.859 50.8239Z" fill="#FDB797"/>
<path opacity="0.1" d="M31.5195 55.5323C35.1785 56.8993 39.2062 56.9104 42.8727 55.5635V54.1666H31.5195V55.5323Z" fill="black"/>
<path d="M37.2174 56.2919C46.2048 56.2919 53.4906 49.0061 53.4906 40.0186C53.4906 31.0312 46.2048 23.7454 37.2174 23.7454C28.2299 23.7454 20.9441 31.0312 20.9441 40.0186C20.9441 49.0061 28.2299 56.2919 37.2174 56.2919Z" fill="#FDB797"/>
<path opacity="0.1" d="M25.6255 25.2163C25.6255 25.2163 32.484 39.1375 51.8304 31.053L47.3261 23.9903L39.3415 21.1246L25.6255 25.2163Z" fill="black"/>
<path d="M25.6255 25.0122C25.6255 25.0122 32.484 38.9334 51.8304 30.8467L47.3261 23.784L39.3415 20.9183L25.6255 25.0122Z" fill="#333333"/>
<path d="M25.5655 24.0687C26.028 22.6372 26.8272 21.3375 27.8961 20.2789C31.0971 17.1145 36.3449 16.4473 39.0365 12.8391C39.6812 13.8405 39.1827 15.3803 38.0695 15.8101C40.6483 15.7929 43.6365 15.5673 45.0946 13.4462C45.4549 14.2851 45.5698 15.209 45.4258 16.1106C45.2818 17.0122 44.8849 17.8544 44.2812 18.5393C46.5666 18.6468 49.009 20.1941 49.153 22.4774C49.2518 23.9989 48.2934 25.4387 47.048 26.3112C45.8027 27.1837 44.2855 27.5845 42.7973 27.9122C38.452 28.8717 22.7299 32.8871 25.5655 24.0687Z" fill="#333333"/>
<path d="M20.9378 42.8424C21.7739 42.8424 22.4518 41.5715 22.4518 40.0036C22.4518 38.4358 21.7739 37.1648 20.9378 37.1648C20.1017 37.1648 19.4238 38.4358 19.4238 40.0036C19.4238 41.5715 20.1017 42.8424 20.9378 42.8424Z" fill="#FDB797"/>
<path d="M53.4886 42.8424C54.3247 42.8424 55.0026 41.5715 55.0026 40.0036C55.0026 38.4358 54.3247 37.1648 53.4886 37.1648C52.6524 37.1648 51.9746 38.4358 51.9746 40.0036C51.9746 41.5715 52.6524 42.8424 53.4886 42.8424Z" fill="#FDB797"/>
<defs>
<linearGradient id="paint0_linear" x1="37.5" y1="75" x2="37.5" y2="0" gradientUnits="userSpaceOnUse">
<stop stop-color="#808080" stop-opacity="0.25"/>
<stop offset="0.54" stop-color="#808080" stop-opacity="0.12"/>
<stop offset="1" stop-color="#808080" stop-opacity="0.1"/>
</linearGradient>
</defs>
</svg>
