<svg width="677" height="475" viewBox="0 0 677 475" fill="none" xmlns="http://www.w3.org/2000/svg">
<g clip-path="url(#clip0)">
<path d="M629.504 311.042C626.115 320.932 624.537 331.481 624.864 342.064C625.19 352.648 627.414 363.051 631.405 372.657C631.889 373.809 632.408 374.975 632.938 376.141C639.253 389.96 648.057 404.327 643.293 418.53C639.591 429.602 628.944 435.424 619.108 439.768C580.992 456.615 540.958 467.443 500.164 471.939C470.079 475.254 439.777 475.091 409.54 474.922C344.15 474.564 278.69 474.205 213.504 468.409C183.704 465.804 153.799 461.982 125.13 452.532C85.7696 439.517 49.7499 416.22 20.0514 384.568C18.9902 383.441 17.9465 382.295 16.9087 381.129C10.6583 374.089 4.95599 366.294 2.07568 356.975C-3.63828 338.31 3.21265 317.802 12.0226 300.7C20.8327 283.599 31.8874 267.285 35.4849 247.949C40.7966 219.483 28.978 191.037 19.8939 163.789C10.8099 136.54 4.83938 103.828 19.8648 80.0839C27.1938 68.5047 38.5226 60.9437 49.9214 54.6852C83.5617 36.2354 120.401 26.2053 157.869 25.2945C179.704 24.7865 202.315 27.2482 222.728 18.5736C234.22 13.6762 244.552 5.39234 256.505 2.12308C276.708 -3.38646 297.622 6.34968 315.743 17.753C326.168 24.3176 336.325 31.4943 347.228 37.1081C355.152 41.1914 364.265 45.7631 372.696 48.2965C380.958 50.7777 389.471 45.8022 396.724 41.7189C412.467 32.8489 427.265 19.6286 445.374 17.5446C468.306 14.9396 491.022 31.4618 513.592 26.1671C523.213 23.9073 531.755 17.8377 541.118 14.4968C565.607 5.74402 592.095 16.4505 615.248 28.987C629.597 36.7499 644.18 45.8152 653.147 60.553C660.016 71.8651 662.931 85.5153 665.689 98.8268C676.184 149.487 685.763 205.527 663.508 251.219C653.351 272.013 637.189 288.978 629.504 311.042Z" fill="#6C63FF"/>
<path d="M672.714 224.471C670.587 233.573 667.484 242.354 663.473 250.625C653.339 271.42 637.189 288.398 629.504 310.468C628.367 313.744 627.435 317.103 626.717 320.524C626.414 321.93 626.151 323.346 625.93 324.77C623.355 340.797 625.267 357.32 631.405 372.089C631.889 373.242 632.408 374.408 632.938 375.574C639.253 389.393 648.057 403.759 643.293 417.963C642.815 419.397 642.21 420.774 641.486 422.073C636.821 430.539 627.65 435.43 619.108 439.2C580.992 456.048 540.958 466.876 500.164 471.372C492.299 472.238 484.422 472.87 476.539 473.326C454.254 474.628 431.888 474.485 409.557 474.361C344.167 474.003 278.707 473.645 213.522 467.849C183.721 465.244 153.816 461.421 125.147 451.971C85.7825 438.965 49.7567 415.674 20.0513 384.027C18.9901 382.9 17.9465 381.754 16.9086 380.588C10.6582 373.542 4.95594 365.746 2.07563 356.427C-1.86584 343.532 0.174866 329.765 4.72272 316.851C6.78404 311.091 9.224 305.51 12.0226 300.153C12.7806 298.687 13.556 297.216 14.3548 295.763C22.6926 280.224 32.2081 265.083 35.4965 247.421C39.5779 225.637 33.5899 203.859 26.4999 182.622C25.8761 180.753 25.2405 178.884 24.605 177.028C23.0307 172.411 21.4332 167.813 19.9114 163.254C10.8215 136.012 4.85682 103.3 19.8822 79.5558C20.2962 78.9045 20.7335 78.2533 21.1824 77.602C28.1791 67.5598 38.2777 60.6696 48.5453 54.9191L49.9388 54.1376C83.5792 35.6878 120.418 25.6577 157.886 24.7468C179.722 24.2389 202.333 26.7006 222.746 18.026C234.238 13.1286 244.569 4.84474 256.522 1.57548C276.725 -3.93407 297.639 5.80207 315.761 17.2054C326.186 23.7635 336.343 30.9467 347.246 36.5605C355.17 40.6438 364.283 45.2155 372.714 47.7489C380.976 50.2301 389.488 45.2546 396.742 41.1713C412.484 32.3013 427.282 19.081 445.392 16.997C468.324 14.392 491.04 30.9142 513.61 25.6195C523.23 23.3597 531.772 17.2901 541.136 13.9492C565.624 5.1899 592.113 15.9029 615.266 28.4394C627.889 35.2645 640.693 43.1055 649.666 54.9321C650.9 56.5525 652.054 58.246 653.124 60.0054C653.246 60.2007 653.363 60.4026 653.479 60.6045C660.091 71.7929 662.96 85.1956 665.665 98.2791C670.959 123.834 676.026 150.757 676.883 177.034C677.402 193.257 676.329 209.239 672.714 224.471Z" fill="url(#paint0_linear)"/>
<g opacity="0.1">
<path opacity="0.1" d="M643.293 417.983C642.815 419.417 642.21 420.794 641.486 422.093C609.101 440.583 574.492 453.744 538.734 461.167C518.723 465.335 497.879 469.438 476.527 473.326C454.243 474.629 431.877 474.485 409.546 474.362C344.156 474.003 278.696 473.645 213.51 467.849C183.71 465.244 153.805 461.421 125.136 451.972C85.775 438.963 49.7533 415.673 20.0513 384.027C18.9901 382.901 17.9465 381.754 16.9086 380.589C10.6582 373.542 4.95594 365.747 2.07563 356.427C-1.86584 343.533 0.174866 329.765 4.72272 316.851L625.947 324.764C623.373 340.791 625.285 357.314 631.422 372.083C631.906 373.236 632.425 374.402 632.956 375.568C639.253 389.413 648.057 403.78 643.293 417.983Z" fill="black"/>
<path opacity="0.1" d="M649.655 54.9261H48.5454L49.9389 54.1446C83.5792 35.6948 120.418 25.6647 157.886 24.7538C179.722 24.2458 202.333 26.7075 222.746 18.0329C234.238 13.1356 244.569 4.85169 256.522 1.58244C276.725 -3.92711 297.639 5.80903 315.761 17.2124C326.186 23.7704 336.343 30.9537 347.246 36.5674C355.17 40.6507 364.283 45.2225 372.714 47.7558C380.976 50.2371 389.488 45.2616 396.742 41.1782C412.484 32.3083 427.282 19.088 445.392 17.004C468.324 14.399 491.04 30.9211 513.61 25.6265C523.23 23.3666 531.772 17.297 541.136 13.9561C565.624 5.19686 592.113 15.9099 615.266 28.4464C627.86 35.2584 640.664 43.0994 649.655 54.9261Z" fill="black"/>
<path opacity="0.1" d="M26.5057 182.623C33.5957 203.86 39.5662 225.637 35.5023 247.422C32.2138 265.083 22.675 280.225 14.3606 295.764L626.717 320.511C627.435 317.091 628.367 313.731 629.504 310.456C637.189 288.398 653.339 271.381 663.473 250.613C667.483 242.346 670.586 233.569 672.714 224.472L26.5057 182.623ZM272.381 260.662H256.872C257.899 260.63 258.922 260.829 259.879 261.246C260.837 261.663 261.71 262.291 262.446 263.091C263.183 263.892 263.768 264.849 264.168 265.906C264.568 266.964 264.774 268.1 264.774 269.248C264.774 270.396 264.568 271.532 264.168 272.59C263.768 273.648 263.183 274.605 262.446 275.405C261.71 276.206 260.837 276.833 259.879 277.25C258.922 277.668 257.899 277.867 256.872 277.835H167.081C166.054 277.867 165.031 277.668 164.073 277.25C163.116 276.833 162.243 276.206 161.507 275.405C160.77 274.605 160.184 273.648 159.784 272.59C159.385 271.532 159.179 270.396 159.179 269.248C159.179 268.1 159.385 266.964 159.784 265.906C160.184 264.849 160.77 263.892 161.507 263.091C162.243 262.291 163.116 261.663 164.073 261.246C165.031 260.829 166.054 260.63 167.081 260.662H182.602C181.575 260.693 180.552 260.494 179.594 260.077C178.637 259.66 177.764 259.032 177.028 258.232C176.291 257.431 175.705 256.474 175.305 255.417C174.906 254.359 174.7 253.223 174.7 252.075C174.7 250.927 174.906 249.791 175.305 248.733C175.705 247.676 176.291 246.718 177.028 245.918C177.764 245.117 178.637 244.49 179.594 244.073C180.552 243.655 181.575 243.457 182.602 243.488H171.524C169.486 243.488 167.531 242.584 166.09 240.974C164.649 239.364 163.839 237.181 163.839 234.905C163.839 232.628 164.649 230.445 166.09 228.835C167.531 227.226 169.486 226.321 171.524 226.321H261.315C263.353 226.321 265.307 227.226 266.749 228.835C268.19 230.445 268.999 232.628 268.999 234.905C268.999 237.181 268.19 239.364 266.749 240.974C265.307 242.584 263.353 243.488 261.315 243.488H272.393C273.42 243.457 274.443 243.655 275.4 244.073C276.358 244.49 277.231 245.117 277.967 245.918C278.704 246.718 279.289 247.676 279.689 248.733C280.089 249.791 280.295 250.927 280.295 252.075C280.295 253.223 280.089 254.359 279.689 255.417C279.289 256.474 278.704 257.431 277.967 258.232C277.231 259.032 276.358 259.66 275.4 260.077C274.443 260.494 273.42 260.693 272.393 260.662H272.381Z" fill="black"/>
<path opacity="0.1" d="M665.654 98.2732C662.948 85.1896 660.08 71.7869 653.468 60.5985L21.1825 77.6091C20.7336 78.2603 20.2963 78.9116 19.8823 79.5628C4.85692 103.301 10.8216 136.013 19.9115 163.255C21.4333 167.813 23.0308 172.405 24.6109 177.022H676.872C676.015 150.751 670.948 123.828 665.654 98.2732ZM135.427 131.422H119.912C120.939 131.39 121.962 131.589 122.919 132.006C123.877 132.423 124.749 133.051 125.486 133.851C126.223 134.652 126.808 135.609 127.208 136.667C127.608 137.724 127.814 138.86 127.814 140.008C127.814 141.156 127.608 142.293 127.208 143.35C126.808 144.408 126.223 145.365 125.486 146.165C124.749 146.966 123.877 147.593 122.919 148.011C121.962 148.428 120.939 148.627 119.912 148.595H30.1208C29.0934 148.627 28.0708 148.428 27.1134 148.011C26.1559 147.593 25.2831 146.966 24.5464 146.165C23.8098 145.365 23.2242 144.408 22.8244 143.35C22.4245 142.293 22.2185 141.156 22.2185 140.008C22.2185 138.86 22.4245 137.724 22.8244 136.667C23.2242 135.609 23.8098 134.652 24.5464 133.851C25.2831 133.051 26.1559 132.423 27.1134 132.006C28.0708 131.589 29.0934 131.39 30.1208 131.422H45.6301C44.6028 131.453 43.5802 131.254 42.6227 130.837C41.6653 130.42 40.7924 129.792 40.0558 128.992C39.3191 128.192 38.7335 127.234 38.3337 126.177C37.9339 125.119 37.7279 123.983 37.7279 122.835C37.7279 121.687 37.9339 120.551 38.3337 119.493C38.7335 118.436 39.3191 117.478 40.0558 116.678C40.7924 115.877 41.6653 115.25 42.6227 114.833C43.5802 114.415 44.6028 114.217 45.6301 114.248H34.552C32.5139 114.248 30.5593 113.344 29.1181 111.734C27.677 110.125 26.8673 107.941 26.8673 105.665C26.8673 103.388 27.677 101.205 29.1181 99.5954C30.5593 97.9857 32.5139 97.0814 34.552 97.0814H124.343C126.381 97.0814 128.336 97.9857 129.777 99.5954C131.218 101.205 132.028 103.388 132.028 105.665C132.028 107.941 131.218 110.125 129.777 111.734C128.336 113.344 126.381 114.248 124.343 114.248H135.421C136.448 114.217 137.471 114.415 138.428 114.833C139.386 115.25 140.259 115.877 140.995 116.678C141.732 117.478 142.318 118.436 142.717 119.493C143.117 120.551 143.323 121.687 143.323 122.835C143.323 123.983 143.117 125.119 142.717 126.177C142.318 127.234 141.732 128.192 140.995 128.992C140.259 129.792 139.386 130.42 138.428 130.837C137.471 131.254 136.448 131.453 135.421 131.422H135.427Z" fill="black"/>
</g>
<path d="M643.294 418.543C639.591 429.615 628.945 435.437 619.108 439.781C580.992 456.628 540.959 467.456 500.165 471.952C470.079 475.267 439.777 475.104 409.54 474.935C344.15 474.577 278.69 474.219 213.504 468.422C183.704 465.817 153.799 461.995 125.13 452.545C85.7685 439.526 49.7487 416.224 20.0514 384.568C18.9902 383.441 17.9465 382.295 16.9087 381.129C25.8395 379.859 34.8618 379.593 43.8401 380.335C69.0341 382.256 93.5808 390.071 118.658 393.464C215.749 406.567 315.289 352.969 410.105 379.749C439.369 388.019 467.082 403.793 497.138 406.958C541.503 411.634 583.909 388.469 627.37 377.43C629.195 376.961 631.061 376.525 632.938 376.128C639.253 389.96 648.057 404.327 643.294 418.543Z" fill="#3F3D56"/>
<path d="M526.454 189.155H523.463V373.51H526.454V189.155Z" fill="#3F3D56"/>
<path d="M529.3 407.993C527.929 409.181 526.243 409.826 524.507 409.826C522.772 409.826 521.086 409.181 519.714 407.993C518.379 398.127 521.773 378.733 522.571 374.389C522.682 373.822 522.741 373.51 522.741 373.51H526.577C526.828 373.799 527.026 374.139 527.16 374.513C529.825 380.817 529.3 407.993 529.3 407.993Z" fill="#3F3D56"/>
<path opacity="0.1" d="M525.79 369.524V373.51H524.169V369.518C524.429 369.473 524.693 369.451 524.956 369.452C525.235 369.453 525.514 369.477 525.79 369.524Z" fill="black"/>
<path opacity="0.1" d="M527.172 374.513C526.489 374.911 525.726 375.11 524.956 375.092C524.118 375.113 523.291 374.869 522.571 374.389C522.682 373.822 522.74 373.51 522.74 373.51H526.577C526.832 373.798 527.034 374.138 527.172 374.513Z" fill="black"/>
<path d="M524.962 374.415C526.746 374.415 528.192 373.456 528.192 372.272C528.192 371.089 526.746 370.13 524.962 370.13C523.178 370.13 521.732 371.089 521.732 372.272C521.732 373.456 523.178 374.415 524.962 374.415Z" fill="#3F3D56"/>
<path d="M510.759 159.458L521.947 154.176L538.909 157.856L525.895 146.863L510.759 159.458Z" fill="#3F3D56"/>
<path d="M514.088 161.405L510.759 159.458L522.134 153.375L538.909 157.856L535.958 159.458L522.134 155.993L514.088 161.405Z" fill="#6C63FF"/>
<path d="M514.088 161.405L510.759 159.458L522.466 152.802L538.909 157.856L535.958 159.458L522.134 155.993L514.088 161.405Z" fill="#3F3D56"/>
<path d="M513.639 159.966L522.793 188.621H527.329L535.807 158.194L522.134 154.639L513.639 159.966Z" fill="#3F3D56"/>
<path d="M529.58 180.552L527.766 187.051L527.329 188.621H522.793L522.455 187.559L520.315 180.864L523.749 178.559L529.58 180.552Z" fill="#3F3D56"/>
<path opacity="0.2" d="M522.134 155.993L524.303 188.621H522.793L514.088 161.405L522.134 155.993Z" fill="#6C63FF"/>
<path opacity="0.1" d="M525.895 146.863L522.134 153.375L510.759 159.458L525.895 146.863Z" fill="black"/>
<path opacity="0.1" d="M527.766 187.051L527.329 188.621H522.793L522.455 187.559C522.835 187.136 523.292 186.808 523.794 186.596C524.297 186.385 524.834 186.296 525.37 186.335C526.214 186.311 527.046 186.559 527.766 187.051Z" fill="black"/>
<path opacity="0.1" d="M525.79 189.155V191.942C525.648 191.952 525.506 191.952 525.364 191.942C524.972 191.939 524.58 191.887 524.198 191.786V189.129L525.79 189.155Z" fill="black"/>
<path d="M525.364 191.297C527.148 191.297 528.594 190.338 528.594 189.155C528.594 187.971 527.148 187.012 525.364 187.012C523.58 187.012 522.134 187.971 522.134 189.155C522.134 190.338 523.58 191.297 525.364 191.297Z" fill="#3F3D56"/>
<path d="M380.282 376.388C380.282 376.388 341.415 374.558 337.334 289.597C333.253 204.635 373.734 190.242 373.734 190.242C373.734 190.242 386.561 182.238 392.246 181.906C397.931 181.574 416.945 183.58 416.945 183.58L395.99 179.06C395.99 179.06 425.481 166.524 434.308 165.521L402.432 173.023C402.432 173.023 401.983 153.297 409.616 146.772C409.616 146.772 403.109 146.231 399.639 160.448C398.655 164.548 396.823 168.333 394.292 171.5C391.76 174.667 388.599 177.127 385.063 178.683C373.233 183.834 356.884 191.968 353.164 198.93C353.164 198.93 346.278 206.96 347.333 186.061C348.389 165.163 353.321 147.267 355.117 146.765C355.117 146.765 369.192 130.048 388.935 129.045C388.935 129.045 377.413 123.835 357.951 140.083C357.951 140.083 356.307 131.891 363.641 122.194C370.976 112.496 382.352 92.0929 394.777 89.9242C394.777 89.9242 377.413 88.752 363.641 113.831C363.641 113.831 358.551 117.511 358.102 108.146C357.653 98.7812 354.657 87.0783 354.657 87.0783C354.657 87.0783 350.464 108.648 359.321 118.338C359.321 118.338 342.412 142.916 343.159 170.503C343.159 170.503 337.911 183.046 335.97 168.328C335.97 168.328 334.844 148.068 332.594 130.881C331.683 123.954 332.062 116.892 333.707 110.136C335.351 103.381 338.225 97.0762 342.15 91.6175C345.887 86.4075 348.494 81.3668 347.048 78.7163L327.439 104.766C327.439 104.766 310.974 62.129 298.998 52.9334C287.022 43.7378 285.523 41.7319 285.523 41.7319L304.834 66.9743L280.585 57.4465L304.834 69.9895C304.834 69.9895 316.064 80.1881 322.501 108.107C328.938 136.026 329.533 153.486 329.533 153.486C329.533 153.486 294.957 122.877 288.369 123.893L310.746 142.779C316.833 147.919 321.86 154.459 325.489 161.956C329.117 169.454 331.262 177.734 331.777 186.237C331.777 186.237 288.52 173.863 278.043 171.525L258.283 148.953L273.25 170.353L242.418 169.852L224.751 155.811C224.751 155.811 238.675 168.836 237.328 169.689C235.981 170.542 215.621 171.525 215.621 171.525C215.621 171.525 267.414 171.193 273.104 175.374C278.795 179.555 291.511 181.053 291.511 181.053L254.837 187.24L298.566 183.73C298.566 183.73 331.649 190.418 333.445 201.965C333.445 201.965 326.705 221.593 322.215 229.382C318.489 235.849 310.991 256.8 309.493 275.191C307.994 293.582 305.901 321.84 311.592 339.059C317.283 356.278 319.37 366.144 316.53 371.328C313.691 376.512 310.991 383.2 320.274 384.535C329.556 385.87 370.265 383.884 370.265 383.884C370.265 383.884 382.678 386.632 380.282 376.388Z" fill="#3F3D56"/>
<path opacity="0.1" d="M358.522 367.264C354.454 364.947 349.787 364.295 345.333 365.421C337.707 367.264 326.034 366.287 324.967 366.072" fill="black"/>
<path opacity="0.1" d="M334.133 267.141C334.133 267.141 332.279 299.828 335.579 306.268L334.133 267.141Z" fill="black"/>
<path opacity="0.1" d="M327.288 306.268C327.288 306.268 329.667 336.877 331.311 342.862C332.955 348.847 327.288 306.268 327.288 306.268Z" fill="black"/>
<path opacity="0.1" d="M324.967 230.984C323.288 231.675 316.076 248.014 317.516 252.847C318.956 257.679 324.967 230.984 324.967 230.984Z" fill="black"/>
<path opacity="0.1" d="M343.258 214.052C342.471 214.449 339.118 223.86 339.789 226.647C340.459 229.434 343.258 214.052 343.258 214.052Z" fill="black"/>
<path opacity="0.1" d="M312.029 268.932C312.857 278.421 313.312 284.634 312.781 292.227C312.337 298.131 312.413 304.068 313.009 309.954" fill="black"/>
<path opacity="0.1" d="M402.333 158.422C401.388 159.801 400.892 161.499 400.928 163.235C400.875 164.954 401.08 166.68 400.975 168.393C400.87 170.203 400.1 172.3 398.497 172.561" fill="black"/>
<path opacity="0.1" d="M374.69 101.842C372.642 104.114 370.825 106.632 369.274 109.351C368.824 110.213 368.309 111.03 367.734 111.793C366.809 112.782 365.817 113.69 364.767 114.509C362.43 116.633 360.77 119.543 360.032 122.806" fill="black"/>
<path opacity="0.1" d="M296.444 52.9855C296.936 54.0556 297.584 55.0264 298.362 55.8575C299.045 56.5804 299.814 57.16 300.432 57.974C300.921 58.6638 301.363 59.393 301.756 60.1557C303.402 62.928 305.253 65.542 307.289 67.9707" fill="black"/>
<path opacity="0.1" d="M332.669 101.386C331.381 102.285 331.043 104.213 331.072 105.945C331.101 107.677 331.357 109.409 330.792 110.985C330.535 111.708 330.121 112.34 329.853 113.05C329.464 114.304 329.311 115.634 329.404 116.957C329.428 118.503 329.47 120.042 329.532 121.575C329.602 123.431 329.76 125.437 330.885 126.785" fill="black"/>
<path opacity="0.1" d="M331.614 192.971C330.76 192.194 329.854 191.493 328.903 190.874C328.033 190.28 327.096 189.82 326.116 189.506C324.623 189.064 323.055 189.129 321.521 188.953C319.988 188.777 318.379 188.302 317.329 187.032" fill="black"/>
<path opacity="0.1" d="M270.749 171.851C272.568 171.91 274.463 171.981 276.078 172.913C276.906 173.388 277.623 174.065 278.439 174.573C279.49 175.225 280.671 175.57 281.874 175.576" fill="black"/>
<path opacity="0.1" d="M296.001 180.246C295.783 180.115 295.531 180.077 295.291 180.14C295.05 180.202 294.838 180.36 294.695 180.584C294.368 181.001 294.187 181.542 293.855 181.952C293.19 182.753 292.106 182.844 291.126 182.883" fill="black"/>
<path opacity="0.1" d="M306.432 137.035L308.181 138.058C310.001 139.037 311.729 140.215 313.341 141.575" fill="black"/>
<path opacity="0.1" d="M326.413 156.149C327.579 155.843 328.559 157.218 328.745 158.513C328.932 159.809 328.71 161.184 329.043 162.421C329.409 163.528 330.009 164.52 330.792 165.313" fill="black"/>
<path opacity="0.1" d="M345.887 158.54C346.931 162.03 344.721 165.84 345.363 169.448C345.561 170.549 346.016 171.571 346.249 172.659C346.832 175.531 345.812 178.591 344.132 180.871" fill="black"/>
<path d="M171.087 405.785L171.985 407.922V392.057H171.087V405.785Z" fill="#3F3D56"/>
<path d="M113.201 405.785L112.303 407.922V392.057H113.201V405.785Z" fill="#3F3D56"/>
<path d="M119.305 362.907H116.822V382.412H119.305V362.907Z" fill="#3F3D56"/>
<path d="M169.262 362.907H166.778V382.412H169.262V362.907Z" fill="#3F3D56"/>
<g opacity="0.1">
<path opacity="0.1" d="M119.305 362.907H116.822V382.412H119.305V362.907Z" fill="black"/>
<path opacity="0.1" d="M169.262 362.907H166.778V382.412H169.262V362.907Z" fill="black"/>
</g>
<path opacity="0.1" d="M119.305 362.907H116.822V365.18H119.305V362.907Z" fill="black"/>
<path opacity="0.1" d="M169.262 362.907H166.778V365.18H169.262V362.907Z" fill="black"/>
<path d="M172.801 362.087H112.997V364.998H172.801V362.087Z" fill="#3F3D56"/>
<path opacity="0.1" d="M119.305 366.229H116.822V369.14H119.305V366.229Z" fill="black"/>
<path opacity="0.1" d="M169.262 366.229H166.778V369.14H169.262V366.229Z" fill="black"/>
<path d="M172.801 366.046H112.997V368.957H172.801V366.046Z" fill="#3F3D56"/>
<path opacity="0.1" d="M119.305 370.182H116.822V373.093H119.305V370.182Z" fill="black"/>
<path opacity="0.1" d="M169.262 370.182H166.778V373.093H169.262V370.182Z" fill="black"/>
<path d="M172.801 370H112.997V372.911H172.801V370Z" fill="#3F3D56"/>
<path opacity="0.1" d="M119.305 374.141H116.822V377.052H119.305V374.141Z" fill="black"/>
<path opacity="0.1" d="M169.262 374.141H166.778V377.052H169.262V374.141Z" fill="black"/>
<path d="M172.801 373.959H112.997V376.87H172.801V373.959Z" fill="#3F3D56"/>
<path opacity="0.1" d="M119.305 378.094H116.822V381.006H119.305V378.094Z" fill="black"/>
<path opacity="0.1" d="M169.262 378.094H166.778V381.006H169.262V378.094Z" fill="black"/>
<path d="M172.801 377.912H112.997V380.823H172.801V377.912Z" fill="#3F3D56"/>
<g opacity="0.1">
<path opacity="0.1" d="M118.063 364.132C118.263 364.132 118.425 363.951 118.425 363.728C118.425 363.505 118.263 363.324 118.063 363.324C117.864 363.324 117.702 363.505 117.702 363.728C117.702 363.951 117.864 364.132 118.063 364.132Z" fill="black"/>
<path opacity="0.1" d="M118.063 368.085C118.263 368.085 118.425 367.904 118.425 367.681C118.425 367.458 118.263 367.277 118.063 367.277C117.864 367.277 117.702 367.458 117.702 367.681C117.702 367.904 117.864 368.085 118.063 368.085Z" fill="black"/>
<path opacity="0.1" d="M118.063 372.044C118.263 372.044 118.425 371.864 118.425 371.641C118.425 371.418 118.263 371.237 118.063 371.237C117.864 371.237 117.702 371.418 117.702 371.641C117.702 371.864 117.864 372.044 118.063 372.044Z" fill="black"/>
<path opacity="0.1" d="M118.063 375.997C118.263 375.997 118.425 375.817 118.425 375.594C118.425 375.371 118.263 375.19 118.063 375.19C117.864 375.19 117.702 375.371 117.702 375.594C117.702 375.817 117.864 375.997 118.063 375.997Z" fill="black"/>
<path opacity="0.1" d="M118.063 379.957C118.263 379.957 118.425 379.776 118.425 379.553C118.425 379.33 118.263 379.15 118.063 379.15C117.864 379.15 117.702 379.33 117.702 379.553C117.702 379.776 117.864 379.957 118.063 379.957Z" fill="black"/>
<path opacity="0.1" d="M168.02 364.132C168.219 364.132 168.381 363.951 168.381 363.728C168.381 363.505 168.219 363.324 168.02 363.324C167.82 363.324 167.658 363.505 167.658 363.728C167.658 363.951 167.82 364.132 168.02 364.132Z" fill="black"/>
<path opacity="0.1" d="M168.02 368.085C168.219 368.085 168.381 367.904 168.381 367.681C168.381 367.458 168.219 367.277 168.02 367.277C167.82 367.277 167.658 367.458 167.658 367.681C167.658 367.904 167.82 368.085 168.02 368.085Z" fill="black"/>
<path opacity="0.1" d="M168.02 372.044C168.219 372.044 168.381 371.864 168.381 371.641C168.381 371.418 168.219 371.237 168.02 371.237C167.82 371.237 167.658 371.418 167.658 371.641C167.658 371.864 167.82 372.044 168.02 372.044Z" fill="black"/>
<path opacity="0.1" d="M168.02 375.997C168.219 375.997 168.381 375.817 168.381 375.594C168.381 375.371 168.219 375.19 168.02 375.19C167.82 375.19 167.658 375.371 167.658 375.594C167.658 375.817 167.82 375.997 168.02 375.997Z" fill="black"/>
<path opacity="0.1" d="M168.02 379.957C168.219 379.957 168.381 379.776 168.381 379.553C168.381 379.33 168.219 379.15 168.02 379.15C167.82 379.15 167.658 379.33 167.658 379.553C167.658 379.776 167.82 379.957 168.02 379.957Z" fill="black"/>
</g>
<path d="M118.063 363.949C118.263 363.949 118.425 363.769 118.425 363.546C118.425 363.323 118.263 363.142 118.063 363.142C117.864 363.142 117.702 363.323 117.702 363.546C117.702 363.769 117.864 363.949 118.063 363.949Z" fill="#3F3D56"/>
<path d="M118.063 367.902C118.263 367.902 118.425 367.722 118.425 367.499C118.425 367.276 118.263 367.095 118.063 367.095C117.864 367.095 117.702 367.276 117.702 367.499C117.702 367.722 117.864 367.902 118.063 367.902Z" fill="#3F3D56"/>
<path d="M118.063 371.862C118.263 371.862 118.425 371.681 118.425 371.458C118.425 371.235 118.263 371.054 118.063 371.054C117.864 371.054 117.702 371.235 117.702 371.458C117.702 371.681 117.864 371.862 118.063 371.862Z" fill="#3F3D56"/>
<path d="M118.063 375.815C118.263 375.815 118.425 375.634 118.425 375.411C118.425 375.188 118.263 375.008 118.063 375.008C117.864 375.008 117.702 375.188 117.702 375.411C117.702 375.634 117.864 375.815 118.063 375.815Z" fill="#3F3D56"/>
<path d="M118.063 379.775C118.263 379.775 118.425 379.594 118.425 379.371C118.425 379.148 118.263 378.967 118.063 378.967C117.864 378.967 117.702 379.148 117.702 379.371C117.702 379.594 117.864 379.775 118.063 379.775Z" fill="#3F3D56"/>
<path d="M118.063 363.949C118.263 363.949 118.425 363.769 118.425 363.546C118.425 363.323 118.263 363.142 118.063 363.142C117.864 363.142 117.702 363.323 117.702 363.546C117.702 363.769 117.864 363.949 118.063 363.949Z" fill="#3F3D56"/>
<path d="M118.063 367.902C118.263 367.902 118.425 367.722 118.425 367.499C118.425 367.276 118.263 367.095 118.063 367.095C117.864 367.095 117.702 367.276 117.702 367.499C117.702 367.722 117.864 367.902 118.063 367.902Z" fill="#3F3D56"/>
<path d="M118.063 371.862C118.263 371.862 118.425 371.681 118.425 371.458C118.425 371.235 118.263 371.054 118.063 371.054C117.864 371.054 117.702 371.235 117.702 371.458C117.702 371.681 117.864 371.862 118.063 371.862Z" fill="#3F3D56"/>
<path d="M118.063 375.815C118.263 375.815 118.425 375.634 118.425 375.411C118.425 375.188 118.263 375.008 118.063 375.008C117.864 375.008 117.702 375.188 117.702 375.411C117.702 375.634 117.864 375.815 118.063 375.815Z" fill="#3F3D56"/>
<path d="M118.063 379.775C118.263 379.775 118.425 379.594 118.425 379.371C118.425 379.148 118.263 378.967 118.063 378.967C117.864 378.967 117.702 379.148 117.702 379.371C117.702 379.594 117.864 379.775 118.063 379.775Z" fill="#3F3D56"/>
<path d="M168.02 363.949C168.219 363.949 168.381 363.769 168.381 363.546C168.381 363.323 168.219 363.142 168.02 363.142C167.82 363.142 167.658 363.323 167.658 363.546C167.658 363.769 167.82 363.949 168.02 363.949Z" fill="#3F3D56"/>
<path d="M168.02 367.902C168.219 367.902 168.381 367.722 168.381 367.499C168.381 367.276 168.219 367.095 168.02 367.095C167.82 367.095 167.658 367.276 167.658 367.499C167.658 367.722 167.82 367.902 168.02 367.902Z" fill="#3F3D56"/>
<path d="M168.02 371.862C168.219 371.862 168.381 371.681 168.381 371.458C168.381 371.235 168.219 371.054 168.02 371.054C167.82 371.054 167.658 371.235 167.658 371.458C167.658 371.681 167.82 371.862 168.02 371.862Z" fill="#3F3D56"/>
<path d="M168.02 375.815C168.219 375.815 168.381 375.634 168.381 375.411C168.381 375.188 168.219 375.008 168.02 375.008C167.82 375.008 167.658 375.188 167.658 375.411C167.658 375.634 167.82 375.815 168.02 375.815Z" fill="#3F3D56"/>
<path d="M168.02 379.775C168.219 379.775 168.381 379.594 168.381 379.371C168.381 379.148 168.219 378.967 168.02 378.967C167.82 378.967 167.658 379.148 167.658 379.371C167.658 379.594 167.82 379.775 168.02 379.775Z" fill="#3F3D56"/>
<g opacity="0.1">
<path opacity="0.1" d="M118.063 363.949C118.263 363.949 118.425 363.769 118.425 363.546C118.425 363.323 118.263 363.142 118.063 363.142C117.864 363.142 117.702 363.323 117.702 363.546C117.702 363.769 117.864 363.949 118.063 363.949Z" fill="black"/>
<path opacity="0.1" d="M118.063 367.902C118.263 367.902 118.425 367.722 118.425 367.499C118.425 367.276 118.263 367.095 118.063 367.095C117.864 367.095 117.702 367.276 117.702 367.499C117.702 367.722 117.864 367.902 118.063 367.902Z" fill="black"/>
<path opacity="0.1" d="M118.063 371.862C118.263 371.862 118.425 371.681 118.425 371.458C118.425 371.235 118.263 371.054 118.063 371.054C117.864 371.054 117.702 371.235 117.702 371.458C117.702 371.681 117.864 371.862 118.063 371.862Z" fill="black"/>
<path opacity="0.1" d="M118.063 375.815C118.263 375.815 118.425 375.634 118.425 375.411C118.425 375.188 118.263 375.008 118.063 375.008C117.864 375.008 117.702 375.188 117.702 375.411C117.702 375.634 117.864 375.815 118.063 375.815Z" fill="black"/>
<path opacity="0.1" d="M118.063 379.775C118.263 379.775 118.425 379.594 118.425 379.371C118.425 379.148 118.263 378.967 118.063 378.967C117.864 378.967 117.702 379.148 117.702 379.371C117.702 379.594 117.864 379.775 118.063 379.775Z" fill="black"/>
<path opacity="0.1" d="M118.063 363.949C118.263 363.949 118.425 363.769 118.425 363.546C118.425 363.323 118.263 363.142 118.063 363.142C117.864 363.142 117.702 363.323 117.702 363.546C117.702 363.769 117.864 363.949 118.063 363.949Z" fill="black"/>
<path opacity="0.1" d="M118.063 367.902C118.263 367.902 118.425 367.722 118.425 367.499C118.425 367.276 118.263 367.095 118.063 367.095C117.864 367.095 117.702 367.276 117.702 367.499C117.702 367.722 117.864 367.902 118.063 367.902Z" fill="black"/>
<path opacity="0.1" d="M118.063 371.862C118.263 371.862 118.425 371.681 118.425 371.458C118.425 371.235 118.263 371.054 118.063 371.054C117.864 371.054 117.702 371.235 117.702 371.458C117.702 371.681 117.864 371.862 118.063 371.862Z" fill="black"/>
<path opacity="0.1" d="M118.063 375.815C118.263 375.815 118.425 375.634 118.425 375.411C118.425 375.188 118.263 375.008 118.063 375.008C117.864 375.008 117.702 375.188 117.702 375.411C117.702 375.634 117.864 375.815 118.063 375.815Z" fill="black"/>
<path opacity="0.1" d="M118.063 379.775C118.263 379.775 118.425 379.594 118.425 379.371C118.425 379.148 118.263 378.967 118.063 378.967C117.864 378.967 117.702 379.148 117.702 379.371C117.702 379.594 117.864 379.775 118.063 379.775Z" fill="black"/>
<path opacity="0.1" d="M168.02 363.949C168.219 363.949 168.381 363.769 168.381 363.546C168.381 363.323 168.219 363.142 168.02 363.142C167.82 363.142 167.658 363.323 167.658 363.546C167.658 363.769 167.82 363.949 168.02 363.949Z" fill="black"/>
<path opacity="0.1" d="M168.02 367.902C168.219 367.902 168.381 367.722 168.381 367.499C168.381 367.276 168.219 367.095 168.02 367.095C167.82 367.095 167.658 367.276 167.658 367.499C167.658 367.722 167.82 367.902 168.02 367.902Z" fill="black"/>
<path opacity="0.1" d="M168.02 371.862C168.219 371.862 168.381 371.681 168.381 371.458C168.381 371.235 168.219 371.054 168.02 371.054C167.82 371.054 167.658 371.235 167.658 371.458C167.658 371.681 167.82 371.862 168.02 371.862Z" fill="black"/>
<path opacity="0.1" d="M168.02 375.815C168.219 375.815 168.381 375.634 168.381 375.411C168.381 375.188 168.219 375.008 168.02 375.008C167.82 375.008 167.658 375.188 167.658 375.411C167.658 375.634 167.82 375.815 168.02 375.815Z" fill="black"/>
<path opacity="0.1" d="M168.02 379.775C168.219 379.775 168.381 379.594 168.381 379.371C168.381 379.148 168.219 378.967 168.02 378.967C167.82 378.967 167.658 379.148 167.658 379.371C167.658 379.594 167.82 379.775 168.02 379.775Z" fill="black"/>
</g>
<path d="M174.183 383.552H111.568L112.997 381.598H172.795L174.183 383.552Z" fill="#3F3D56"/>
<path d="M176.381 386.6L109.207 386.417L111.487 383.734H174.428L176.381 386.6Z" fill="#3F3D56"/>
<path d="M178.497 389.465H106.804L109.003 386.691L176.544 386.782L178.497 389.465Z" fill="#3F3D56"/>
<path d="M117.702 392.057V397.782L116.821 399.696L116.53 392.871L116.495 392.057H117.702Z" fill="#3F3D56"/>
<path d="M167.991 392.057L167.956 392.871L167.664 399.696L166.784 397.782V392.057H167.991Z" fill="#3F3D56"/>
<path d="M116.822 391.601H114.542V399.696H116.822V391.601Z" fill="#3F3D56"/>
<path d="M169.95 391.601H167.67V399.696H169.95V391.601Z" fill="#3F3D56"/>
<path opacity="0.1" d="M116.822 392.057H117.702V392.871H114.542V391.601H116.822V392.057Z" fill="black"/>
<path opacity="0.1" d="M116.822 391.601H114.542V399.696H116.822V391.601Z" fill="black"/>
<path opacity="0.1" d="M169.95 391.601H167.67V399.696H169.95V391.601Z" fill="black"/>
<path opacity="0.1" d="M169.95 391.601V392.871H166.784V392.057H167.664V391.601H169.95Z" fill="black"/>
<path d="M172.795 390.69H111.568V392.689H172.795V390.69Z" fill="#3F3D56"/>
<path opacity="0.1" d="M172.795 390.69H111.568V392.689H172.795V390.69Z" fill="black"/>
<path d="M112.303 390.325H109.697V407.922H112.303V390.325Z" fill="#3F3D56"/>
<path d="M171.985 407.922H174.591V390.325H171.985V407.922Z" fill="#3F3D56"/>
<path opacity="0.1" d="M112.303 390.325H109.697V407.922H112.303V390.325Z" fill="black"/>
<path opacity="0.1" d="M171.985 407.922H174.591V390.325H171.985V407.922Z" fill="black"/>
<path opacity="0.1" d="M172.795 390.69H111.568V390.872H172.795V390.69Z" fill="black"/>
<path opacity="0.1" d="M110.845 392.187C111.045 392.187 111.207 392.007 111.207 391.784C111.207 391.561 111.045 391.38 110.845 391.38C110.645 391.38 110.484 391.561 110.484 391.784C110.484 392.007 110.645 392.187 110.845 392.187Z" fill="black"/>
<path opacity="0.1" d="M173.5 392.129C173.7 392.129 173.862 391.948 173.862 391.725C173.862 391.502 173.7 391.321 173.5 391.321C173.301 391.321 173.139 391.502 173.139 391.725C173.139 391.948 173.301 392.129 173.5 392.129Z" fill="black"/>
<path d="M107.393 388.723L106.804 389.465V390.077H178.497V389.465L177.961 388.723H107.393Z" fill="#3F3D56"/>
<path d="M178.491 389.465H106.804V390.696H178.491V389.465Z" fill="#3F3D56"/>
<path d="M287.937 357.548C287.609 358.055 287.346 358.612 287.156 359.202C287.103 359.345 287.057 359.508 287.01 359.664C286.922 359.62 286.83 359.585 286.736 359.56C286.334 359.449 285.919 359.409 285.506 359.443C285.506 359.267 285.506 359.078 285.506 358.876C285.558 356.844 285.343 354.018 283.611 355.216C281.879 356.414 283.133 358.29 284.194 359.534L284.468 359.833C283.488 360.621 283.302 362.438 283.139 364.32C282.975 366.203 281.541 368.28 280.585 369.459L280.317 369.784C279.93 369.441 279.483 369.192 279.005 369.055C278.527 368.918 278.028 368.896 277.541 368.99C277.501 368.821 277.46 368.651 277.413 368.469C276.638 365.349 275.034 359.951 272.988 358.772C273.075 358.648 273.168 358.524 273.256 358.388C274.13 357.085 275.104 355.236 273.658 354.747C272.212 354.259 272.084 356.388 272.166 358.003C272.166 358.205 272.166 358.394 272.206 358.57C271.917 358.584 271.634 358.665 271.374 358.808C271.114 358.95 270.883 359.151 270.696 359.397L270.469 359.097C269.303 357.554 267.151 355.105 266.498 356.955C265.915 358.681 267.787 360.928 269.116 362.223L269.198 362.302C268.306 366.352 272.206 369.654 274.305 371.1L274.579 371.289C271.664 375.099 269.915 382.249 269.915 382.249L278.031 383.871C278.031 383.871 283.407 378.661 282.696 373.816H282.754C288.13 372.611 289.354 366.209 288.514 362.406L288.608 362.367C289.586 361.917 290.444 361.192 291.097 360.263C292.637 357.893 289.482 355.255 287.937 357.548Z" fill="#3F3D56"/>
<path opacity="0.1" d="M287.937 357.548C287.609 358.055 287.346 358.612 287.156 359.202C287.103 359.345 287.057 359.508 287.01 359.664C286.922 359.62 286.83 359.585 286.736 359.56C286.334 359.449 285.919 359.409 285.506 359.443C285.506 359.267 285.506 359.078 285.506 358.876C285.558 356.844 285.343 354.018 283.611 355.216C281.879 356.414 283.133 358.29 284.194 359.534L284.468 359.833C283.488 360.621 283.302 362.438 283.139 364.32C282.975 366.203 281.541 368.28 280.585 369.459L280.317 369.784C279.93 369.441 279.483 369.192 279.005 369.055C278.527 368.918 278.028 368.896 277.541 368.99C277.501 368.821 277.46 368.651 277.413 368.469C276.638 365.349 275.034 359.951 272.988 358.772C273.075 358.648 273.168 358.524 273.256 358.388C274.13 357.085 275.104 355.236 273.658 354.747C272.212 354.259 272.084 356.388 272.166 358.003C272.166 358.205 272.166 358.394 272.206 358.57C271.917 358.584 271.634 358.665 271.374 358.808C271.114 358.95 270.883 359.151 270.696 359.397L270.469 359.097C269.303 357.554 267.151 355.105 266.498 356.955C265.915 358.681 267.787 360.928 269.116 362.223L269.198 362.302C268.306 366.352 272.206 369.654 274.305 371.1L274.579 371.289C271.664 375.099 269.915 382.249 269.915 382.249L278.031 383.871C278.031 383.871 283.407 378.661 282.696 373.816H282.754C288.13 372.611 289.354 366.209 288.514 362.406L288.608 362.367C289.586 361.917 290.444 361.192 291.097 360.263C292.637 357.893 289.482 355.255 287.937 357.548Z" fill="black"/>
<path d="M271.787 360.159L270.865 363.259C270.865 363.259 270.335 362.842 269.699 362.191C268.37 360.889 266.475 358.648 267.081 356.922C267.734 355.073 269.886 357.522 271.058 359.065C271.478 359.684 271.787 360.159 271.787 360.159Z" fill="#3F3D56"/>
<path d="M273.781 358.388C273.492 358.812 273.182 359.219 272.854 359.606C272.854 359.606 272.737 358.87 272.684 357.971C272.609 356.388 272.754 354.278 274.183 354.715C275.611 355.151 274.661 357.118 273.781 358.388Z" fill="#3F3D56"/>
<path d="M286.025 358.876C285.996 359.899 285.908 360.713 285.908 360.713C285.497 360.349 285.107 359.955 284.742 359.534C283.669 358.29 282.48 356.369 284.159 355.216C285.838 354.064 286.077 356.844 286.025 358.876Z" fill="#3F3D56"/>
<path d="M291.628 360.218C290.975 361.148 290.117 361.873 289.138 362.321C288.866 362.451 288.588 362.564 288.305 362.66L287.191 360.902C287.309 360.324 287.463 359.756 287.652 359.202C287.841 358.612 288.104 358.055 288.433 357.548C289.978 355.255 293.132 357.893 291.628 360.218Z" fill="#3F3D56"/>
<path opacity="0.1" d="M271.005 359.065C271.478 359.716 271.787 360.159 271.787 360.159L270.865 363.259C270.865 363.259 270.335 362.842 269.699 362.191C269.849 361.199 270.215 360.264 270.766 359.469C270.807 359.319 270.912 359.189 271.005 359.065Z" fill="black"/>
<path opacity="0.1" d="M273.78 358.388C273.492 358.812 273.182 359.219 272.853 359.606C272.853 359.606 272.737 358.87 272.684 357.971C273.079 357.982 273.462 358.127 273.78 358.388Z" fill="black"/>
<path d="M278.445 370.703L276.113 371.862C276.113 371.862 275.594 371.582 274.853 371.067C272.375 369.368 267.39 365.076 270.731 359.996C274.072 354.917 276.865 364.008 277.961 368.462C278.276 369.791 278.445 370.703 278.445 370.703Z" fill="#3F3D56"/>
<path opacity="0.1" d="M284.725 359.534C285.068 359.141 285.533 358.908 286.025 358.883C285.996 359.905 285.908 360.719 285.908 360.719C285.491 360.354 285.095 359.958 284.725 359.534Z" fill="black"/>
<path opacity="0.1" d="M289.138 362.321C288.866 362.451 288.588 362.564 288.305 362.66L287.191 360.902C287.309 360.324 287.463 359.756 287.652 359.202C288.357 359.671 288.905 360.843 289.138 362.321Z" fill="black"/>
<path d="M283.284 373.77C283.156 373.77 283.022 373.829 282.888 373.848C274.976 375.19 280.276 370.423 280.276 370.423C280.276 370.423 280.637 370.058 281.115 369.459C282.072 368.28 283.506 366.203 283.669 364.321C283.92 361.455 284.206 358.772 287.232 359.56C290.258 360.348 290.771 372.096 283.284 373.77Z" fill="#3F3D56"/>
<path opacity="0.1" d="M277.944 368.469C278.276 369.771 278.457 370.703 278.457 370.703L276.125 371.862C276.125 371.862 275.606 371.582 274.865 371.067C275.763 369.758 276.807 368.769 277.944 368.469Z" fill="black"/>
<path opacity="0.1" d="M283.284 373.77C283.156 373.77 283.022 373.829 282.888 373.848C274.976 375.19 280.276 370.423 280.276 370.423C280.276 370.423 280.637 370.058 281.115 369.459C281.736 369.958 282.252 370.602 282.627 371.346C283.002 372.091 283.226 372.918 283.284 373.77Z" fill="black"/>
<path d="M270.422 382.217C270.422 382.217 274.853 364.509 281.063 369.967C287.273 375.424 278.538 383.838 278.538 383.838L270.422 382.217Z" fill="#3F3D56"/>
<path opacity="0.1" d="M272.661 363.35C272.935 363.35 273.157 363.102 273.157 362.797C273.157 362.491 272.935 362.243 272.661 362.243C272.387 362.243 272.166 362.491 272.166 362.797C272.166 363.102 272.387 363.35 272.661 363.35Z" fill="black"/>
<path opacity="0.1" d="M272.62 365.942C272.894 365.942 273.116 365.694 273.116 365.389C273.116 365.083 272.894 364.835 272.62 364.835C272.347 364.835 272.125 365.083 272.125 365.389C272.125 365.694 272.347 365.942 272.62 365.942Z" fill="black"/>
<path opacity="0.1" d="M287.028 363.865C287.301 363.865 287.523 363.617 287.523 363.311C287.523 363.005 287.301 362.758 287.028 362.758C286.754 362.758 286.532 363.005 286.532 363.311C286.532 363.617 286.754 363.865 287.028 363.865Z" fill="black"/>
<path opacity="0.1" d="M275.437 377.131C275.71 377.131 275.932 376.883 275.932 376.577C275.932 376.271 275.71 376.023 275.437 376.023C275.163 376.023 274.941 376.271 274.941 376.577C274.941 376.883 275.163 377.131 275.437 377.131Z" fill="black"/>
<path opacity="0.1" d="M285.99 368.163C286.263 368.163 286.485 367.915 286.485 367.609C286.485 367.304 286.263 367.056 285.99 367.056C285.716 367.056 285.494 367.304 285.494 367.609C285.494 367.915 285.716 368.163 285.99 368.163Z" fill="black"/>
<path opacity="0.1" d="M280.859 373.894C281.133 373.894 281.354 373.646 281.354 373.34C281.354 373.035 281.133 372.787 280.859 372.787C280.585 372.787 280.363 373.035 280.363 373.34C280.363 373.646 280.585 373.894 280.859 373.894Z" fill="black"/>
<path opacity="0.1" d="M274.358 364.464C274.632 364.464 274.854 364.216 274.854 363.91C274.854 363.605 274.632 363.357 274.358 363.357C274.084 363.357 273.862 363.605 273.862 363.91C273.862 364.216 274.084 364.464 274.358 364.464Z" fill="black"/>
<path opacity="0.1" d="M285.657 365.525C285.931 365.525 286.153 365.277 286.153 364.972C286.153 364.666 285.931 364.418 285.657 364.418C285.384 364.418 285.162 364.666 285.162 364.972C285.162 365.277 285.384 365.525 285.657 365.525Z" fill="black"/>
<path opacity="0.1" d="M283.961 369.83C284.235 369.83 284.457 369.582 284.457 369.277C284.457 368.971 284.235 368.723 283.961 368.723C283.687 368.723 283.465 368.971 283.465 369.277C283.465 369.582 283.687 369.83 283.961 369.83Z" fill="black"/>
<path opacity="0.1" d="M278.748 376.714C279.022 376.714 279.244 376.466 279.244 376.16C279.244 375.855 279.022 375.607 278.748 375.607C278.475 375.607 278.253 375.855 278.253 376.16C278.253 376.466 278.475 376.714 278.748 376.714Z" fill="black"/>
<path opacity="0.1" d="M277.67 373.992C277.943 373.992 278.165 373.744 278.165 373.438C278.165 373.132 277.943 372.885 277.67 372.885C277.396 372.885 277.174 373.132 277.174 373.438C277.174 373.744 277.396 373.992 277.67 373.992Z" fill="black"/>
<path opacity="0.1" d="M275.104 367.837C275.378 367.837 275.6 367.59 275.6 367.284C275.6 366.978 275.378 366.73 275.104 366.73C274.831 366.73 274.609 366.978 274.609 367.284C274.609 367.59 274.831 367.837 275.104 367.837Z" fill="black"/>
<path opacity="0.1" d="M279.407 379.215C279.681 379.215 279.903 378.967 279.903 378.661C279.903 378.355 279.681 378.107 279.407 378.107C279.134 378.107 278.912 378.355 278.912 378.661C278.912 378.967 279.134 379.215 279.407 379.215Z" fill="black"/>
<path opacity="0.1" d="M276.428 379.905C276.701 379.905 276.923 379.657 276.923 379.351C276.923 379.046 276.701 378.798 276.428 378.798C276.154 378.798 275.932 379.046 275.932 379.351C275.932 379.657 276.154 379.905 276.428 379.905Z" fill="black"/>
<path d="M201.971 393.887C201.971 393.887 211.183 373.223 215.294 372.324L201.971 393.887Z" fill="#3F3D56"/>
<path d="M204.292 398.277C204.292 398.277 213.504 377.613 217.615 376.714L204.292 398.277Z" fill="#3F3D56"/>
<path d="M206.303 402.835C206.303 402.835 215.51 382.165 219.62 381.273L206.303 402.835Z" fill="#3F3D56"/>
<path d="M241.742 389.888C241.742 389.888 250.954 369.224 255.059 368.326L241.742 389.888Z" fill="#3F3D56"/>
<path d="M244.045 394.245C244.045 394.245 253.257 373.581 257.362 372.683L244.045 394.245Z" fill="#3F3D56"/>
<path d="M246.068 398.804C246.068 398.804 255.28 378.14 259.391 377.241L246.068 398.804Z" fill="#3F3D56"/>
<path d="M361.589 369.101C361.589 369.101 370.796 348.437 374.906 347.544L361.589 369.101Z" fill="#3F3D56"/>
<path d="M363.91 373.497C363.91 373.497 373.116 352.826 377.227 351.934L363.91 373.497Z" fill="#3F3D56"/>
<path d="M365.904 378.049C365.904 378.049 375.11 357.385 379.221 356.493L365.904 378.049Z" fill="#3F3D56"/>
<path d="M213.212 397.912C213.212 397.912 206.851 375.952 209.224 372.096L213.212 397.912Z" fill="#3F3D56"/>
<path d="M249.368 395.476C249.368 395.476 243.007 373.516 245.38 369.667L249.368 395.476Z" fill="#3F3D56"/>
<path d="M365.904 381.201C365.904 381.201 359.548 359.241 361.927 355.372L365.904 381.201Z" fill="#3F3D56"/>
<path d="M520.245 412.506C520.245 412.506 512.175 396.544 500.007 391.94C494.904 390.047 490.489 386.357 487.425 381.422C485.984 379.067 484.74 376.569 483.71 373.959" stroke="#3F3D56" stroke-width="2" stroke-miterlimit="10"/>
<path d="M476.521 371.504C477.903 373.008 484.352 374.558 484.352 374.558C484.352 374.558 482.772 367.394 481.384 365.903C481.062 365.511 480.671 365.197 480.236 364.979C479.801 364.762 479.331 364.646 478.855 364.639C478.378 364.631 477.906 364.733 477.465 364.937C477.025 365.141 476.627 365.443 476.296 365.825C475.964 366.207 475.706 366.661 475.536 367.159C475.367 367.656 475.291 368.187 475.312 368.719C475.333 369.251 475.451 369.772 475.659 370.251C475.867 370.73 476.161 371.156 476.521 371.504Z" fill="#3F3D56"/>
<path d="M479.717 383.943C481.611 384.366 487.78 381.748 487.78 381.748C487.78 381.748 482.97 376.707 481.075 376.29C480.191 376.155 479.295 376.402 478.569 376.98C477.843 377.558 477.342 378.424 477.168 379.402C476.995 380.379 477.162 381.393 477.636 382.237C478.109 383.081 478.854 383.691 479.717 383.943Z" fill="#3F3D56"/>
<path d="M493.01 397.951C494.835 397.248 498.981 391.51 498.981 391.51C498.981 391.51 492.567 389.869 490.725 390.572C489.886 390.942 489.207 391.66 488.831 392.575C488.454 393.49 488.408 394.533 488.703 395.484C488.998 396.436 489.611 397.224 490.413 397.684C491.216 398.144 492.146 398.239 493.01 397.951Z" fill="#3F3D56"/>
<path d="M505.184 406.02C507.091 405.668 512.041 400.81 512.041 400.81C512.041 400.81 505.954 397.977 504.047 398.329C503.578 398.393 503.126 398.564 502.718 398.829C502.309 399.094 501.953 399.449 501.671 399.873C501.388 400.296 501.186 400.779 501.075 401.292C500.965 401.805 500.948 402.338 501.027 402.859C501.106 403.379 501.278 403.876 501.534 404.32C501.79 404.764 502.123 405.146 502.514 405.442C502.906 405.738 503.346 405.942 503.81 406.043C504.274 406.143 504.752 406.138 505.214 406.026L505.184 406.02Z" fill="#3F3D56"/>
<path d="M493.156 376.16C493.156 378.316 489.658 384.568 489.658 384.568C489.658 384.568 486.159 378.322 486.159 376.167C486.159 375.13 486.528 374.137 487.184 373.404C487.84 372.671 488.73 372.259 489.658 372.259C490.586 372.259 491.475 372.671 492.131 373.404C492.788 374.137 493.156 375.13 493.156 376.167V376.16Z" fill="#3F3D56"/>
<path d="M507.301 385.799C506.718 387.857 501.715 392.656 501.715 392.656C501.715 392.656 500.054 385.493 500.631 383.467C500.939 382.523 501.561 381.748 502.368 381.303C503.174 380.858 504.104 380.777 504.962 381.077C505.821 381.377 506.543 382.035 506.979 382.914C507.414 383.794 507.53 384.827 507.301 385.799Z" fill="#3F3D56"/>
<path d="M519.901 397.28C519.639 399.416 515.435 405.095 515.435 405.095C515.435 405.095 512.718 398.381 512.974 396.245C513.135 395.256 513.632 394.374 514.359 393.783C515.087 393.192 515.991 392.937 516.883 393.072C517.775 393.206 518.586 393.719 519.148 394.504C519.71 395.289 519.98 396.285 519.901 397.287V397.28Z" fill="#3F3D56"/>
<path d="M519.779 412.194C519.779 412.194 518.199 393.959 508.753 384.236C504.772 380.191 502.072 374.815 501.057 368.912C500.595 366.106 500.365 363.259 500.369 360.407" stroke="#3F3D56" stroke-width="2" stroke-miterlimit="10"/>
<path d="M494.45 355.255C495.173 357.255 500.508 361.598 500.508 361.598C500.508 361.598 501.675 354.337 500.934 352.338C500.561 351.421 499.886 350.701 499.049 350.327C498.212 349.953 497.278 349.954 496.442 350.33C495.606 350.707 494.932 351.429 494.561 352.346C494.19 353.264 494.15 354.306 494.45 355.255Z" fill="#3F3D56"/>
<path d="M493.092 367.746C494.672 368.984 501.255 369.387 501.255 369.387C501.255 369.387 498.689 362.601 497.115 361.364C496.356 360.828 495.442 360.638 494.561 360.834C493.68 361.03 492.901 361.596 492.384 362.416C491.867 363.236 491.652 364.247 491.784 365.239C491.916 366.231 492.384 367.129 493.092 367.746Z" fill="#3F3D56"/>
<path d="M500.153 386.548C502.077 386.73 507.948 383.363 507.948 383.363C507.948 383.363 502.66 378.954 500.742 378.772C500.27 378.698 499.791 378.733 499.332 378.874C498.874 379.014 498.445 379.258 498.074 379.589C497.702 379.921 497.395 380.334 497.171 380.803C496.948 381.271 496.812 381.786 496.772 382.316C496.732 382.845 496.79 383.378 496.941 383.882C497.092 384.385 497.333 384.85 497.65 385.246C497.967 385.642 498.353 385.962 498.784 386.185C499.215 386.409 499.683 386.532 500.158 386.548H500.153Z" fill="#3F3D56"/>
<path d="M508.368 399.442C510.234 399.983 516.531 397.775 516.531 397.775C516.531 397.775 511.989 392.428 510.117 391.914C509.664 391.753 509.186 391.696 508.713 391.748C508.239 391.8 507.78 391.96 507.364 392.217C506.948 392.474 506.582 392.823 506.291 393.243C505.999 393.662 505.788 394.144 505.669 394.659C505.549 395.173 505.526 395.709 505.598 396.234C505.671 396.759 505.839 397.262 506.091 397.713C506.344 398.163 506.676 398.551 507.068 398.853C507.459 399.154 507.902 399.364 508.368 399.468V399.442Z" fill="#3F3D56"/>
<path d="M508.199 366.704C507.418 368.658 501.96 372.806 501.96 372.806C501.96 372.806 501.033 365.512 501.815 363.539C501.982 363.041 502.24 362.587 502.57 362.204C502.901 361.82 503.298 361.517 503.738 361.311C504.177 361.106 504.649 361.003 505.126 361.009C505.602 361.014 506.072 361.128 506.508 361.344C506.943 361.56 507.335 361.873 507.658 362.264C507.981 362.655 508.23 363.115 508.388 363.617C508.546 364.119 508.611 364.651 508.579 365.182C508.546 365.713 508.417 366.231 508.199 366.704Z" fill="#3F3D56"/>
<path d="M517.639 381.917C516.362 383.539 510.059 385.655 510.059 385.655C510.059 385.655 511.126 378.388 512.391 376.766C513.018 376.053 513.865 375.634 514.759 375.598C515.653 375.561 516.526 375.908 517.198 376.567C517.87 377.227 518.29 378.149 518.372 379.144C518.454 380.139 518.192 381.132 517.639 381.917Z" fill="#3F3D56"/>
<path d="M524.991 398.114C523.982 399.95 518.076 403.233 518.076 403.233C518.076 403.233 518.023 395.86 519.038 394.024C519.267 393.561 519.577 393.155 519.95 392.83C520.324 392.505 520.752 392.268 521.21 392.134C521.667 391.999 522.145 391.97 522.613 392.047C523.081 392.125 523.53 392.307 523.933 392.584C524.336 392.861 524.685 393.227 524.958 393.658C525.231 394.09 525.423 394.579 525.522 395.096C525.621 395.613 525.624 396.147 525.533 396.666C525.442 397.184 525.258 397.677 524.991 398.114Z" fill="#3F3D56"/>
<path d="M162.014 262.765C162.014 262.765 172.929 262.036 171.641 270.58C171.707 271.014 171.65 271.46 171.476 271.856C171.302 272.251 171.021 272.575 170.673 272.781C170.673 272.781 170.673 272.13 169.553 272.358C169.168 272.431 168.777 272.453 168.387 272.423C167.852 272.389 167.342 272.16 166.935 271.772C166.935 271.772 163.868 270.359 162.673 264.758C162.673 264.758 161.793 263.534 161.828 263.221L163.67 264.1C163.317 264.953 163.267 265.923 163.53 266.816C163.53 266.816 163.594 264.152 163.944 264.211C164.02 264.211 164.906 264.725 164.906 264.725C164.906 264.725 163.822 267.33 164.638 269.186C164.638 269.186 164.329 266.002 165.221 264.914L166.515 265.754C166.515 265.754 165.25 268.431 166.107 270.606C166.107 270.606 165.886 267.265 166.79 265.963L167.956 266.985C167.956 266.985 166.789 269.59 167.495 271.427C167.495 271.427 167.588 267.519 168.212 267.239C168.651 267.663 169.042 268.144 169.378 268.672C169.378 268.672 168.562 270.58 169.069 271.589C169.069 271.589 169.378 268.984 169.652 268.984C170.184 269.865 170.568 270.848 170.783 271.882C170.732 270.793 170.426 269.738 169.897 268.822C170.488 268.946 171.033 269.261 171.466 269.727C171.466 269.727 171.308 268.516 169.646 268.424C169.338 267.919 168.978 267.456 168.574 267.044C169.47 266.957 170.372 267.075 171.227 267.389C171.227 267.389 170.346 266.243 168.27 266.738L167.104 265.676C167.104 265.676 169.279 265.344 170.206 265.715C170.206 265.715 169.139 264.699 166.795 265.435L165.53 264.595C166.502 264.355 167.498 264.259 168.492 264.308C168.492 264.308 167.326 263.605 165.157 264.367L164.253 263.911C164.253 263.911 165.618 263.618 166.002 263.566C166.387 263.514 166.422 263.397 166.422 263.397C165.561 263.239 164.677 263.349 163.868 263.716C163.868 263.716 161.979 262.895 162.014 262.765Z" fill="#3F3D56"/>
<path d="M214.857 237.243C214.857 237.243 225.772 236.507 224.483 245.058C224.549 245.491 224.492 245.936 224.318 246.33C224.144 246.725 223.863 247.047 223.515 247.252C223.515 247.252 223.515 246.601 222.396 246.836C222.01 246.903 221.619 246.923 221.23 246.894C220.697 246.858 220.19 246.629 219.784 246.243C219.784 246.243 216.711 244.823 215.521 239.223C215.521 239.223 214.635 237.998 214.67 237.686L216.513 238.565C216.16 239.418 216.112 240.389 216.379 241.281C216.379 241.281 216.437 238.617 216.793 238.676C216.863 238.676 217.749 239.19 217.749 239.19C217.749 239.19 216.67 241.795 217.486 243.658C217.486 243.658 217.177 240.473 218.069 239.379L219.37 240.226C219.37 240.226 218.104 242.896 218.962 245.071C218.962 245.071 218.74 241.73 219.638 240.427L220.804 241.45C220.804 241.45 219.638 244.087 220.338 245.891C220.338 245.891 220.437 241.984 221.061 241.704C221.499 242.127 221.891 242.608 222.227 243.137C222.227 243.137 221.41 245.045 221.918 246.054C221.918 246.054 222.227 243.449 222.501 243.449C223.033 244.33 223.416 245.312 223.632 246.347C223.58 245.258 223.274 244.203 222.746 243.286C223.336 243.411 223.881 243.725 224.314 244.192C224.314 244.192 224.157 242.98 222.495 242.889C222.186 242.384 221.826 241.921 221.422 241.508C222.318 241.426 223.22 241.543 224.075 241.854C224.075 241.854 223.194 240.707 221.119 241.202L219.953 240.141C219.953 240.141 222.127 239.809 223.049 240.18C223.049 240.18 221.988 239.164 219.638 239.906L218.378 239.06C219.348 238.82 220.342 238.724 221.335 238.773C221.335 238.773 220.168 238.07 218.005 238.832L217.102 238.382C217.102 238.382 218.46 238.083 218.851 238.037C219.241 237.992 219.271 237.868 219.271 237.868C218.41 237.706 217.526 237.814 216.717 238.181C216.074 237.929 215.451 237.615 214.857 237.243Z" fill="#3F3D56"/>
<path d="M250.295 143.118C250.295 143.118 261.216 142.382 259.927 150.933C259.994 151.366 259.936 151.812 259.762 152.206C259.588 152.6 259.307 152.923 258.959 153.128C258.959 153.128 258.959 152.476 257.84 152.711C257.454 152.778 257.063 152.798 256.674 152.77C256.139 152.733 255.63 152.505 255.222 152.118C255.222 152.118 252.155 150.699 250.966 145.098C250.966 145.098 250.079 143.88 250.114 143.561L251.957 144.44C251.603 145.295 251.555 146.269 251.823 147.162C251.823 147.162 251.881 144.499 252.237 144.557C252.307 144.557 253.193 145.072 253.193 145.072C253.193 145.072 252.108 147.677 252.93 149.539C252.93 149.539 252.616 146.355 253.514 145.261L254.814 146.107C254.814 146.107 253.548 148.777 254.406 150.953C254.406 150.953 254.184 147.612 255.082 146.309L256.248 147.338C256.248 147.338 255.082 149.943 255.782 151.773C255.782 151.773 255.881 147.866 256.505 147.592C256.944 148.013 257.335 148.492 257.671 149.018C257.671 149.018 256.854 150.926 257.362 151.936C257.362 151.936 257.671 149.331 257.945 149.331C258.479 150.21 258.863 151.193 259.076 152.229C259.028 151.14 258.724 150.085 258.195 149.168C258.786 149.292 259.331 149.607 259.764 150.073C259.764 150.073 259.606 148.862 257.945 148.771C257.633 148.266 257.273 147.801 256.872 147.384C257.768 147.301 258.67 147.418 259.525 147.729C259.525 147.729 258.644 146.583 256.569 147.078L255.403 146.023C255.403 146.023 257.577 145.684 258.499 146.055C258.499 146.055 257.437 145.039 255.088 145.782L253.823 144.935C254.795 144.699 255.79 144.602 256.784 144.648C256.784 144.648 255.618 143.945 253.455 144.707L252.551 144.258C252.551 144.258 253.91 143.958 254.301 143.913C254.691 143.867 254.72 143.743 254.72 143.743C253.86 143.581 252.976 143.689 252.167 144.056C251.52 143.804 250.894 143.49 250.295 143.118Z" fill="#3F3D56"/>
<path d="M282.077 115.447C282.077 115.447 292.992 114.711 291.71 123.261C291.775 123.695 291.715 124.141 291.541 124.535C291.366 124.929 291.084 125.251 290.736 125.456C290.736 125.456 290.736 124.805 289.616 125.039C289.231 125.113 288.84 125.134 288.45 125.105C287.916 125.068 287.407 124.839 286.998 124.453C286.998 124.453 283.932 123.04 282.736 117.439C282.736 117.439 281.856 116.215 281.891 115.902L283.693 116.756C283.34 117.609 283.292 118.58 283.558 119.471C283.558 119.471 283.617 116.808 283.972 116.866C284.042 116.866 284.929 117.381 284.929 117.381C284.929 117.381 283.844 119.986 284.66 121.842C284.66 121.842 284.351 118.657 285.243 117.563L286.538 118.41C286.538 118.41 285.273 121.08 286.13 123.261C286.13 123.261 285.914 119.921 286.812 118.618L287.978 119.641C287.978 119.641 286.812 122.246 287.512 124.082C287.512 124.082 287.605 120.175 288.229 119.895C288.669 120.314 289.061 120.793 289.395 121.321C289.395 121.321 288.584 123.235 289.086 124.245C289.086 124.245 289.401 121.64 289.669 121.64C290.204 122.517 290.587 123.497 290.8 124.531C290.752 123.443 290.448 122.387 289.92 121.471C290.511 121.596 291.057 121.913 291.488 122.382C291.488 122.382 291.325 121.164 289.663 121.08C289.355 120.575 288.995 120.111 288.59 119.699C289.488 119.613 290.392 119.728 291.249 120.038C291.249 120.038 290.363 118.892 288.287 119.387L287.191 118.319C287.191 118.319 289.372 117.986 290.293 118.319C290.293 118.319 289.232 117.309 286.882 118.045L285.617 117.198C286.589 116.962 287.585 116.868 288.579 116.918C288.579 116.918 287.412 116.215 285.249 116.977L284.346 116.521C284.346 116.521 285.704 116.222 286.095 116.176C286.485 116.13 286.515 116.007 286.515 116.007C285.653 115.844 284.768 115.954 283.961 116.326C283.961 116.326 282.048 115.583 282.077 115.447Z" fill="#3F3D56"/>
<path d="M350.558 68.0553C350.558 68.0553 354.435 79.4782 346.745 80.6504C346.394 80.8483 345.996 80.9176 345.607 80.8487C345.219 80.7797 344.86 80.5759 344.581 80.2662C344.581 80.2662 345.118 80.0578 344.581 78.9637C344.402 78.567 344.267 78.147 344.179 77.7133C344.06 77.1349 344.113 76.5291 344.331 75.9875C344.331 75.9875 344.628 72.2949 349.059 69.3578C349.059 69.3578 349.841 68.0553 350.12 67.9967L349.916 70.224C349.084 70.0987 348.24 70.3314 347.555 70.8752C347.555 70.8752 349.852 70.1458 349.887 70.5431C349.887 70.6212 349.736 71.7153 349.736 71.7153C349.736 71.7153 347.205 71.3311 345.841 72.7573C345.841 72.7573 348.47 71.4548 349.677 72.1061L349.339 73.7407C349.339 73.7407 346.68 73.1871 345.071 74.7501C345.071 74.7501 347.864 73.5193 349.24 74.0989L348.715 75.6554C348.715 75.6554 346.115 75.1734 344.785 76.4825C344.785 76.4825 348.138 75.4274 348.575 76.007C348.348 76.6064 348.056 77.1728 347.707 77.6938C347.707 77.6938 345.829 77.3942 345.118 78.2278C345.118 78.2278 347.45 77.7915 347.514 78.0585C346.921 78.8878 346.195 79.5877 345.374 80.1229C346.282 79.743 347.086 79.1055 347.707 78.2734C347.775 78.945 347.666 79.6244 347.392 80.2271C347.392 80.2271 348.383 79.6996 347.975 77.8957C348.315 77.4159 348.605 76.8936 348.838 76.3392C349.177 77.2691 349.345 78.2657 349.333 79.2698C349.333 79.2698 350.05 77.9673 348.989 75.9289L349.572 74.3789C349.572 74.3789 350.505 76.5997 350.464 77.6938C350.464 77.6938 351.012 76.261 349.683 73.9752L350.033 72.3796C350.525 73.3427 350.902 74.374 351.152 75.447C351.152 75.447 351.409 73.9947 350.115 71.9172L350.231 70.8166C350.231 70.8166 350.89 72.1777 351.053 72.588C351.217 72.9983 351.321 72.9853 351.321 72.9853C351.199 72.0273 350.842 71.1257 350.289 70.3803C350.316 69.5979 350.406 68.8198 350.558 68.0553Z" fill="#3F3D56"/>
<path d="M549.129 268.945C549.129 268.945 560.044 268.21 558.756 276.76C558.822 277.194 558.764 277.639 558.591 278.033C558.417 278.427 558.136 278.75 557.788 278.955C557.788 278.955 557.788 278.304 556.668 278.538C556.283 278.612 555.892 278.633 555.502 278.603C554.968 278.567 554.459 278.338 554.051 277.952C554.051 277.952 550.984 276.539 549.788 270.938C549.788 270.938 548.908 269.714 548.943 269.401L550.785 270.28C550.432 271.134 550.384 272.105 550.651 272.996C550.651 272.996 550.71 270.333 551.065 270.391C551.135 270.391 552.021 270.906 552.021 270.906C552.021 270.906 550.937 273.511 551.753 275.367C551.753 275.367 551.444 272.182 552.336 271.088L553.631 271.935C553.631 271.935 552.365 274.605 553.223 276.786C553.223 276.786 553.001 273.446 553.905 272.143L555.071 273.166C555.071 273.166 553.905 275.771 554.61 277.607C554.61 277.607 554.704 273.7 555.327 273.42C555.766 273.84 556.158 274.319 556.494 274.846C556.494 274.846 555.683 276.76 556.185 277.77C556.185 277.77 556.494 275.165 556.768 275.165C557.302 276.042 557.686 277.022 557.899 278.056C557.847 276.968 557.544 275.914 557.018 274.996C557.609 275.125 558.153 275.441 558.587 275.907C558.587 275.907 558.424 274.689 556.762 274.605C556.453 274.1 556.093 273.636 555.689 273.224C556.587 273.138 557.491 273.253 558.348 273.563C558.348 273.563 557.461 272.417 555.386 272.912L554.22 271.857C554.22 271.857 556.394 271.524 557.321 271.889C557.321 271.889 556.26 270.88 553.911 271.616L552.645 270.769C553.618 270.532 554.613 270.438 555.607 270.489C555.607 270.489 554.441 269.786 552.278 270.548L551.374 270.092C551.374 270.092 552.733 269.792 553.123 269.746C553.514 269.701 553.543 269.577 553.543 269.577C552.682 269.414 551.797 269.525 550.989 269.896C550.989 269.896 549.095 269.082 549.129 268.945Z" fill="#3F3D56"/>
<path d="M209.114 298.063C209.114 298.063 215.866 307.675 208.84 311.348C208.558 311.656 208.197 311.856 207.807 311.921C207.418 311.985 207.02 311.91 206.671 311.706C206.671 311.706 207.125 311.329 206.344 310.443C206.068 310.123 205.826 309.769 205.621 309.388C205.347 308.872 205.23 308.271 205.289 307.675C205.289 307.675 204.589 304.054 208.035 299.769C208.035 299.769 208.432 298.265 208.682 298.115L209.085 300.31C208.255 300.471 207.511 300.978 207.003 301.729C207.003 301.729 209.003 300.27 209.155 300.635C209.189 300.707 209.324 301.807 209.324 301.807C209.324 301.807 206.799 302.283 205.884 304.1C205.884 304.1 208.053 302.003 209.382 302.224L209.499 303.891C209.499 303.891 206.811 304.25 205.691 306.275C205.691 306.275 208.023 304.171 209.499 304.263L209.417 305.923C209.417 305.923 206.799 306.327 205.884 308.02C205.884 308.02 208.799 305.897 209.382 306.301C209.328 306.95 209.2 307.589 209.003 308.203C209.003 308.203 207.137 308.541 206.671 309.577C206.671 309.577 208.752 308.392 208.904 308.619C208.56 309.608 208.056 310.518 207.417 311.303C208.189 310.636 208.792 309.756 209.166 308.75C209.407 309.363 209.484 310.042 209.388 310.703C209.388 310.703 210.192 309.863 209.324 308.274C209.52 307.703 209.657 307.109 209.732 306.503C210.302 307.269 210.73 308.155 210.991 309.108C210.991 309.108 211.329 307.643 209.767 306.034L209.889 304.367C209.889 304.367 211.37 306.177 211.638 307.232C211.638 307.232 211.784 305.682 209.889 303.976L209.79 302.335C210.518 303.094 211.154 303.954 211.685 304.894C211.685 304.894 211.539 303.423 209.743 301.866L209.568 300.778C209.568 300.778 210.56 301.859 210.816 302.198C211.073 302.537 211.184 302.485 211.184 302.485C210.812 301.604 210.229 300.855 209.499 300.323C209.499 300.323 208.997 298.102 209.114 298.063Z" fill="#3F3D56"/>
<path d="M557.776 226.973C557.776 226.973 564.528 236.585 557.502 240.265C557.221 240.572 556.859 240.773 556.47 240.837C556.08 240.901 555.682 240.826 555.333 240.623C555.333 240.623 555.788 240.245 555.007 239.353C554.731 239.033 554.488 238.679 554.284 238.298C554.009 237.785 553.893 237.185 553.951 236.591C553.951 236.591 553.252 232.964 556.698 228.679C556.698 228.679 557.094 227.174 557.345 227.031L557.747 229.219C556.916 229.381 556.171 229.891 555.666 230.646C555.666 230.646 557.665 229.187 557.817 229.545C557.852 229.617 557.986 230.717 557.986 230.717C557.986 230.717 555.467 231.193 554.546 233.01C554.546 233.01 556.715 230.913 558.044 231.134L558.161 232.808C558.161 232.808 555.473 233.159 554.354 235.191C554.354 235.191 556.686 233.088 558.161 233.172L558.079 234.833C558.079 234.833 555.462 235.237 554.546 236.937C554.546 236.937 557.461 234.807 558.044 235.217C557.99 235.864 557.863 236.501 557.665 237.112C557.665 237.112 555.8 237.451 555.333 238.493C555.333 238.493 557.415 237.301 557.572 237.529C557.225 238.518 556.719 239.427 556.08 240.212C556.852 239.546 557.455 238.666 557.829 237.66C558.069 238.273 558.146 238.952 558.05 239.613C558.05 239.613 558.855 238.773 557.986 237.191C558.182 236.62 558.319 236.025 558.394 235.419C558.966 236.185 559.394 237.071 559.654 238.024C559.654 238.024 559.992 236.565 558.429 234.95L558.552 233.283C558.552 233.283 560.033 235.094 560.301 236.149C560.301 236.149 560.447 234.599 558.552 232.86L558.453 231.219C559.18 231.977 559.817 232.838 560.348 233.778C560.348 233.778 560.202 232.306 558.406 230.75L558.231 229.662C558.231 229.662 559.222 230.743 559.485 231.082C559.747 231.421 559.846 231.368 559.846 231.368C559.473 230.489 558.89 229.741 558.161 229.206C558.161 229.206 557.66 227.025 557.776 226.973Z" fill="#3F3D56"/>
<path d="M586.299 293.771C586.299 293.771 587.582 305.904 579.886 304.953C579.502 305.051 579.1 305.012 578.738 304.84C578.376 304.668 578.071 304.372 577.868 303.995C577.868 303.995 578.451 303.943 578.183 302.693C578.097 302.266 578.054 301.829 578.055 301.391C578.06 300.789 578.24 300.206 578.568 299.73C578.568 299.73 579.658 296.233 584.597 294.578C584.597 294.578 585.641 293.523 585.926 293.543L585.244 295.653C584.461 295.307 583.59 295.307 582.807 295.653C582.807 295.653 585.192 295.568 585.139 295.966C585.139 296.05 584.731 297.066 584.731 297.066C584.731 297.066 582.358 296.005 580.725 297.021C580.725 297.021 583.559 296.493 584.585 297.45L583.903 298.948C583.903 298.948 581.443 297.691 579.548 298.773C579.548 298.773 582.521 298.336 583.734 299.261L582.889 300.629C582.889 300.629 580.469 299.456 578.895 300.368C578.895 300.368 582.393 300.251 582.673 300.928C582.322 301.449 581.917 301.922 581.466 302.335C581.466 302.335 579.717 301.534 578.836 302.152C578.836 302.152 581.169 302.354 581.198 302.634C580.443 303.282 579.587 303.765 578.673 304.061C579.644 303.942 580.571 303.542 581.361 302.901C581.28 303.568 581.029 304.194 580.638 304.705C580.638 304.705 581.717 304.458 581.717 302.595C581.717 302.595 582.83 301.579 582.883 301.293C583.011 302.288 582.959 303.303 582.731 304.276C582.731 304.276 583.705 303.227 583.116 300.941L583.996 299.587C583.996 299.587 584.416 301.996 584.142 303.045C584.142 303.045 584.988 301.801 584.195 299.222L584.877 297.77C585.141 298.831 585.284 299.925 585.302 301.026C585.302 301.026 585.885 299.684 585.057 297.314L585.413 296.285C585.413 296.285 585.757 297.783 585.821 298.238C585.885 298.694 585.996 298.694 585.996 298.694C586.092 297.726 585.942 296.746 585.565 295.868C585.565 295.868 586.154 293.738 586.299 293.771Z" fill="#3F3D56"/>
<path d="M611.132 382.171C612.134 381.252 612.865 380.018 613.231 378.629C613.505 377.222 612.969 375.535 611.762 375.021C610.415 374.441 608.975 375.49 607.879 376.545C606.782 377.6 605.546 378.798 604.106 378.576C604.837 377.829 605.382 376.883 605.688 375.831C605.995 374.779 606.052 373.656 605.855 372.572C605.789 372.122 605.618 371.7 605.36 371.348C604.608 370.455 603.255 370.84 602.357 371.543C599.506 373.783 598.713 378.108 598.695 382.002C598.41 380.595 598.649 379.137 598.643 377.691C598.637 376.245 598.281 374.656 597.191 373.881C596.515 373.475 595.755 373.275 594.987 373.301C593.704 373.249 592.276 373.393 591.401 374.441C590.311 375.744 590.597 377.925 591.541 379.358C592.486 380.791 593.926 381.683 595.249 382.673C596.312 383.381 597.218 384.347 597.902 385.499C597.981 385.66 598.047 385.828 598.101 386.001H606.129C607.944 384.982 609.627 383.694 611.132 382.171Z" fill="#3F3D56"/>
<path d="M454.109 389.433C455.114 388.519 455.848 387.286 456.214 385.896C456.482 384.483 455.945 382.796 454.744 382.288C453.392 381.709 451.952 382.751 450.861 383.806C449.771 384.861 448.529 386.066 447.083 385.844C447.814 385.096 448.36 384.149 448.666 383.096C448.973 382.043 449.03 380.919 448.832 379.833C448.771 379.384 448.599 378.962 448.337 378.615C447.59 377.723 446.232 378.107 445.34 378.811C442.488 381.051 441.69 385.375 441.678 389.27C441.386 387.863 441.631 386.398 441.626 384.959C441.62 383.519 441.264 381.924 440.174 381.149C439.496 380.74 438.734 380.54 437.964 380.569C436.681 380.517 435.259 380.66 434.384 381.709C433.294 383.011 433.574 385.186 434.524 386.619C435.474 388.052 436.909 388.951 438.232 389.941C439.293 390.649 440.199 391.612 440.885 392.761C440.963 392.923 441.028 393.093 441.077 393.268H449.112C450.926 392.25 452.608 390.96 454.109 389.433Z" fill="#3F3D56"/>
<path d="M109.697 344.953C109.697 344.953 112.18 344.712 113.002 345.487C113.002 345.487 110.192 346.301 109.901 346.952C109.901 346.952 109.959 347.017 110.192 346.952C110.425 346.887 111.906 346.535 112.221 346.952L112.326 347.154L112.437 347.232L112.6 347.356C112.701 347.43 112.778 347.537 112.822 347.662C112.874 347.844 113.002 347.662 113.002 347.662C113.002 347.662 113.189 348.092 113.131 348.209C113.072 348.326 113.311 348.619 113.311 348.619V349.922L113.405 349.824C113.43 350.645 113.611 351.451 113.935 352.188C113.935 352.188 115.049 355.346 115.434 355.587H115.667C115.667 355.587 117.346 358.075 118.955 358.603C120.565 359.13 120.652 359.684 120.652 359.684L118.641 362.172C118.259 362.205 117.881 362.272 117.51 362.373C118.206 362.457 118.908 362.485 119.609 362.458L121.159 360.172C121.357 360.223 121.539 360.328 121.69 360.478C121.787 360.511 121.879 360.559 121.964 360.622C122.092 360.726 122.186 360.622 122.291 360.667C122.396 360.713 121.468 362.458 121.468 362.458H120.436L121.294 362.803C121.585 362.927 122.186 362.517 122.186 362.517L123.008 360.849L123.34 361.175V360.947C123.34 360.947 123.684 361.175 123.83 361.136C123.976 361.097 123.649 360.869 123.649 360.869C123.811 360.901 123.977 360.901 124.139 360.869C124.232 360.81 124.051 360.478 124.051 360.478V360.237C124.051 360.237 123.509 360.237 123.579 360.114C123.649 359.99 123.847 359.931 124.191 360.114C124.535 360.296 126.646 361.318 127.451 360.947C127.973 361.399 128.536 361.79 129.13 362.113C129.526 362.217 129.987 362.986 129.987 362.986C129.987 362.986 131.684 364.939 132.687 364.457C132.496 364.119 132.343 363.756 132.232 363.376C132.173 363.031 130.932 361.911 130.932 361.911C130.932 361.911 133.561 362.601 133.561 362.399C133.561 362.399 134.873 363.233 134.949 363.233C135.025 363.233 134.949 362.725 134.237 362.132L135.229 362.295C135.21 362.037 135.124 361.79 134.979 361.587C134.835 361.384 134.639 361.234 134.418 361.156C134.179 360.784 133.868 360.477 133.509 360.257L129.398 357.71C129.398 357.71 129.8 357.483 129.346 356.831C129.472 356.784 129.6 356.745 129.73 356.714C129.964 356.649 127.888 354.695 127.83 354.702C127.562 354.492 127.339 354.218 127.177 353.901C127.101 353.653 125.223 352.429 125.223 352.429C125.223 352.429 123.602 352.305 122.489 349.824C121.375 347.343 118.728 347.069 118.728 347.069C118.728 347.069 117.778 341.814 113.288 343.813C113.242 343.852 110.169 344.034 109.697 344.953Z" fill="#3F3D56"/>
<path d="M399.191 313.693C398.887 314.24 397.972 313.914 397.68 314.468C397.59 314.774 397.59 315.105 397.68 315.412C397.694 315.729 397.639 316.046 397.522 316.335C397.404 316.625 397.227 316.879 397.004 317.077C396.782 317.275 396.521 317.412 396.242 317.476C395.963 317.539 395.675 317.529 395.401 317.444C395.357 318.294 395.03 319.095 394.485 319.691C394.143 319.932 393.742 320.048 393.338 320.024C392.933 319.999 392.546 319.835 392.229 319.554C391.603 318.974 391.139 318.206 390.894 317.34C390.55 316.317 390.311 315.158 389.512 314.5C389.226 314.259 388.894 314.109 388.614 313.849C388.022 313.254 387.614 312.466 387.448 311.596C387.203 310.519 386.889 309.464 386.509 308.437C386.121 307.404 385.416 306.559 384.521 306.054C383.675 305.617 382.696 305.643 381.815 305.298C381.162 305.014 380.547 304.633 379.985 304.165C379.272 303.557 378.502 303.04 377.687 302.621C377.208 302.396 376.754 302.107 376.335 301.762C376.021 301.584 375.757 301.313 375.572 300.979C375.387 300.644 375.288 300.26 375.285 299.867C375.154 299.13 374.898 298.427 374.533 297.796C374.137 296.975 373.781 296.181 374.038 295.34C374.294 294.5 375.087 293.992 375.355 293.172C375.479 292.605 375.513 292.019 375.454 291.44C375.431 291.147 375.472 290.852 375.574 290.581C375.675 290.31 375.834 290.07 376.037 289.883C376.72 289.375 377.548 290.013 378.37 290.267C378.657 290.373 378.964 290.395 379.262 290.332C379.524 290.227 379.781 290.105 380.031 289.968C381.308 289.395 382.748 290.43 383.46 291.733C384.171 293.035 384.451 294.585 385.063 295.953C385.273 296.483 385.6 296.945 386.014 297.294C386.219 297.469 386.463 297.579 386.719 297.613C386.976 297.646 387.235 297.601 387.471 297.483L388.171 299.235C388.526 300.134 388.894 301.026 389.255 301.925C389.716 303.071 390.252 304.308 391.284 304.816C391.745 305.038 392.258 305.083 392.73 305.266C393.239 305.468 393.693 305.815 394.046 306.271C394.4 306.728 394.641 307.279 394.748 307.87C394.777 308.267 394.84 308.659 394.934 309.043C395.331 310.235 396.683 310.502 397.692 311.127C398.267 311.493 398.749 312.018 399.091 312.651C399.196 312.796 399.26 312.971 399.278 313.155C399.295 313.34 399.265 313.527 399.191 313.693Z" fill="#3F3D56"/>
<path opacity="0.1" d="M399.191 313.693C398.887 314.24 397.972 313.914 397.68 314.468C397.59 314.774 397.59 315.105 397.68 315.412C397.694 315.729 397.639 316.046 397.522 316.335C397.404 316.625 397.227 316.879 397.004 317.077C396.782 317.275 396.521 317.412 396.242 317.476C395.963 317.539 395.675 317.529 395.401 317.444C395.357 318.294 395.03 319.095 394.485 319.691C394.143 319.932 393.742 320.048 393.338 320.024C392.933 319.999 392.546 319.835 392.229 319.554C391.603 318.974 391.139 318.206 390.894 317.34C390.55 316.317 390.311 315.158 389.512 314.5C389.226 314.259 388.894 314.109 388.614 313.849C388.022 313.254 387.614 312.466 387.448 311.596C387.203 310.519 386.889 309.464 386.509 308.437C386.121 307.404 385.416 306.559 384.521 306.054C383.675 305.617 382.696 305.643 381.815 305.298C381.162 305.014 380.547 304.633 379.985 304.165C379.272 303.557 378.502 303.04 377.687 302.621C377.208 302.396 376.754 302.107 376.335 301.762C376.021 301.584 375.757 301.313 375.572 300.979C375.387 300.644 375.288 300.26 375.285 299.867C375.154 299.13 374.898 298.427 374.533 297.796C374.137 296.975 373.781 296.181 374.038 295.34C374.294 294.5 375.087 293.992 375.355 293.172C375.479 292.605 375.513 292.019 375.454 291.44C375.431 291.147 375.472 290.852 375.574 290.581C375.675 290.31 375.834 290.07 376.037 289.883C376.72 289.375 377.548 290.013 378.37 290.267C378.657 290.373 378.964 290.395 379.262 290.332C379.524 290.227 379.781 290.105 380.031 289.968C381.308 289.395 382.748 290.43 383.46 291.733C384.171 293.035 384.451 294.585 385.063 295.953C385.273 296.483 385.6 296.945 386.014 297.294C386.219 297.469 386.463 297.579 386.719 297.613C386.976 297.646 387.235 297.601 387.471 297.483L388.171 299.235C388.526 300.134 388.894 301.026 389.255 301.925C389.716 303.071 390.252 304.308 391.284 304.816C391.745 305.038 392.258 305.083 392.73 305.266C393.239 305.468 393.693 305.815 394.046 306.271C394.4 306.728 394.641 307.279 394.748 307.87C394.777 308.267 394.84 308.659 394.934 309.043C395.331 310.235 396.683 310.502 397.692 311.127C398.267 311.493 398.749 312.018 399.091 312.651C399.196 312.796 399.26 312.971 399.278 313.155C399.295 313.34 399.265 313.527 399.191 313.693Z" fill="black"/>
<path d="M377.303 300.739C377.303 300.739 377.821 301.905 376.288 301.931C374.755 301.957 377.273 309.525 377.273 309.525L379.821 313.152L382.987 311.237L383.168 305.962L383.407 302.771C383.407 302.771 380.445 301.697 380.987 300.271C381.53 298.844 377.303 300.739 377.303 300.739Z" fill="#FBBEBE"/>
<path d="M386.497 331.608C386.497 331.608 388.363 333.666 390.55 330.957L388.87 328.971H386.754L386.497 331.608Z" fill="#3F3D56"/>
<path d="M389.844 329.323C390.177 330.333 390.613 331.296 391.144 332.194C391.692 332.846 392.55 337.47 391.407 336.949C390.264 336.428 388.078 332.54 387.949 331.875C387.847 331.029 387.787 330.177 387.769 329.323H389.844Z" fill="#3F3D56"/>
<path d="M373.513 340.628L383.588 341.065L382.416 336.31L377.343 336.193L373.513 340.628Z" fill="#3F3D56"/>
<path d="M376.807 348.489C376.568 348.984 376.661 350.703 376.766 351.966C376.836 352.774 376.912 353.393 376.912 353.393C376.912 353.393 373.145 354.695 372.574 353.568C372.409 353.132 372.327 352.662 372.335 352.188C372.316 350.765 372.396 349.344 372.574 347.935C372.574 347.935 372.417 344.08 372.341 343.702C372.341 343.552 372.259 343.051 372.212 342.549C372.148 341.781 372.078 340.921 372.078 340.921L377.221 337.873C377.221 337.873 377.221 338.44 377.221 339.319C377.186 342.08 377.104 347.877 376.807 348.489Z" fill="#3F3D56"/>
<path d="M377.04 375.327H376.982C376.527 375.327 373.95 375.327 373.95 375.327L373.845 375.19C373.617 374.871 373.466 374.492 373.407 374.09C373.348 373.687 373.382 373.274 373.507 372.891C373.832 371.575 374.006 370.218 374.026 368.853C374.125 368.516 374.135 368.154 374.055 367.811C373.963 367.503 373.945 367.173 374.002 366.854C373.978 366.629 373.925 366.41 373.845 366.203C373.771 365.878 373.771 365.537 373.845 365.213C373.825 364.593 373.737 363.978 373.583 363.383C373.349 362.634 371.635 353.666 372.049 352.592C372.049 352.592 375.687 351.895 377.063 352.422L376.883 359.384C376.883 359.384 376.23 361.468 376.778 362.022C377.326 362.575 376.778 364.288 376.778 364.288C376.778 364.288 376.696 364.607 377.163 365.675C377.629 366.743 377.163 367.245 377.163 367.245V369.303C376.96 370.133 376.978 371.011 377.215 371.829C377.693 372.956 377.221 375.294 377.04 375.327Z" fill="#3F3D56"/>
<path d="M384.177 348.489C383.938 348.984 384.031 350.703 384.136 351.966C384.206 352.774 384.282 353.393 384.282 353.393C384.282 353.393 380.515 354.695 379.944 353.568C379.778 353.132 379.697 352.662 379.705 352.188C379.685 350.766 379.765 349.344 379.944 347.935C379.944 347.935 379.786 344.08 379.71 343.702C379.67 343.5 379.594 341.56 379.535 339.795C379.489 338.31 379.448 336.962 379.448 336.962L384.591 337.854C384.591 337.854 384.591 340.381 384.527 342.973C384.462 345.565 384.369 348.091 384.177 348.489Z" fill="#3F3D56"/>
<path d="M384.41 375.327H384.352C383.897 375.327 381.32 375.327 381.32 375.327L381.215 375.19C380.987 374.871 380.836 374.492 380.777 374.09C380.718 373.687 380.752 373.274 380.877 372.891C381.202 371.575 381.376 370.218 381.396 368.853C381.486 368.513 381.486 368.151 381.396 367.811C381.304 367.503 381.285 367.173 381.343 366.854C381.319 366.629 381.266 366.41 381.186 366.203C381.111 365.878 381.111 365.537 381.186 365.213C381.166 364.593 381.078 363.978 380.923 363.383C380.69 362.634 378.976 353.666 379.39 352.592C379.39 352.592 383.028 351.895 384.404 352.422L384.223 359.384C384.223 359.384 383.57 361.468 384.118 362.022C384.667 362.575 384.118 364.288 384.118 364.288C384.118 364.288 384.037 364.607 384.503 365.675C384.97 366.743 384.503 367.245 384.503 367.245V369.303C384.3 370.133 384.319 371.011 384.556 371.829C385.063 372.956 384.591 375.294 384.41 375.327Z" fill="#3F3D56"/>
<path opacity="0.1" d="M379.197 302.061C381.22 302.061 382.859 300.23 382.859 297.972C382.859 295.713 381.22 293.882 379.197 293.882C377.175 293.882 375.536 295.713 375.536 297.972C375.536 300.23 377.175 302.061 379.197 302.061Z" fill="black"/>
<path d="M379.326 301.931C381.348 301.931 382.987 300.1 382.987 297.841C382.987 295.583 381.348 293.751 379.326 293.751C377.303 293.751 375.664 295.583 375.664 297.841C375.664 300.1 377.303 301.931 379.326 301.931Z" fill="#FBBEBE"/>
<path d="M383.635 315.744C383.507 316.876 383.481 318.019 383.559 319.157C385.926 321.338 385.483 325.917 385.483 325.917C385.483 325.917 387.302 335.184 386.894 336.043C386.486 336.903 387.774 342.048 387.774 342.048C386.691 342.278 385.594 342.42 384.492 342.471C384.103 342.486 383.713 342.473 383.326 342.432C383.062 342.443 382.8 342.39 382.557 342.277C382.313 342.165 382.094 341.996 381.915 341.781C381.186 340.361 378.043 338.238 378.043 338.238C378.043 338.238 376.061 339.573 374.207 340.785C373.624 341.175 373.04 341.553 372.539 341.866C372.137 342.104 371.693 342.24 371.239 342.263C369.035 342.445 366.096 340.902 366.574 340.361C367.157 339.71 369.979 327.988 369.979 327.988C369.979 327.988 371.408 320.733 372.656 319.723C372.874 319.538 373.036 319.284 373.122 318.994C373.548 317.691 372.836 315.542 372.836 315.542C372.836 315.542 368.813 310 368.994 309.681C369.131 309.017 369.191 308.337 369.175 307.656C369.175 307.656 369.67 304.953 369.95 303.65C370.23 302.348 372.283 302.022 372.866 302.14C373.449 302.257 374.941 302.14 375.513 301.619C376.084 301.098 377.046 301.82 377.046 301.82L379.279 303.071L381.407 301.671C381.407 301.671 383.541 301.794 383.74 302.113C383.938 302.433 386.725 303.038 386.725 303.038C388.153 304.113 388.101 309.219 388.101 309.219C388.101 309.219 384.672 312.553 383.973 314.266C383.804 314.74 383.691 315.237 383.635 315.744Z" fill="#3F3D56"/>
<path d="M387.354 308.483L388.13 309.18L388.935 317.274L389.745 325.415C389.745 325.415 390.054 326.229 390.328 326.144C390.602 326.06 390.561 330.957 390.561 330.957C390.561 330.957 387.576 328.906 386.509 331.608L385.675 325.05C385.675 325.05 384.608 318.349 384.637 317.828C384.667 317.307 384.089 311.648 384.089 311.648L387.354 308.483Z" fill="#3F3D56"/>
<path d="M369.589 308.86L369.006 309.642C369.006 309.642 369.058 313.009 368.615 313.823C368.172 314.637 369.833 319.391 370.457 319.104C371.081 318.818 372.486 311.387 372.486 311.289C372.486 311.192 369.589 308.86 369.589 308.86Z" fill="#3F3D56"/>
<path d="M369.536 313.647C369.536 313.647 367.717 315.705 367.845 316.695C367.974 317.685 369.717 320.778 372.212 319.117C372.212 319.117 374.521 314.259 369.536 313.647Z" fill="#3F3D56"/>
<path opacity="0.1" d="M376.982 375.333C376.527 375.333 373.95 375.333 373.95 375.333L373.845 375.196C374.504 374.942 375.927 374.565 376.982 375.333Z" fill="black"/>
<path opacity="0.1" d="M384.352 375.333C383.897 375.333 381.32 375.333 381.32 375.333L381.215 375.196C381.874 374.942 383.296 374.565 384.352 375.333Z" fill="black"/>
<path d="M376.597 295.262C376.715 295.249 376.834 295.262 376.947 295.301C377.113 295.392 377.262 295.518 377.384 295.673C377.588 295.861 377.831 295.988 378.091 296.044C378.351 296.1 378.619 296.082 378.871 295.992C379.056 295.898 379.252 295.836 379.454 295.809C379.603 295.822 379.747 295.877 379.871 295.97C379.996 296.062 380.097 296.188 380.165 296.337C380.317 296.623 380.399 296.949 380.533 297.242C380.591 297.395 380.677 297.533 380.787 297.645C380.897 297.757 381.027 297.842 381.168 297.893C381.305 297.9 381.439 297.936 381.565 297.998C381.645 298.068 381.706 298.163 381.74 298.271C381.984 298.857 382.177 299.574 382.696 299.841C382.879 299.935 383.077 299.986 383.279 299.99C383.491 300.006 383.704 299.961 383.897 299.86C384.088 299.74 384.247 299.564 384.357 299.352C384.651 298.727 384.75 298.009 384.637 297.314C384.548 296.436 384.272 295.594 383.833 294.859C383.37 294.117 382.739 293.526 382.004 293.146C381.27 292.766 380.458 292.611 379.652 292.696C379.371 292.737 379.093 292.798 378.818 292.879C377.805 293.125 376.897 293.753 376.247 294.657C376.102 294.886 375.942 295.104 375.769 295.308C376.049 295.295 376.323 295.269 376.597 295.262Z" fill="#3F3D56"/>
<path opacity="0.1" d="M376.597 295.262C376.715 295.249 376.834 295.262 376.947 295.301C377.113 295.392 377.262 295.518 377.384 295.673C377.588 295.861 377.831 295.988 378.091 296.044C378.351 296.1 378.619 296.082 378.871 295.992C379.056 295.898 379.252 295.836 379.454 295.809C379.603 295.822 379.747 295.877 379.871 295.97C379.996 296.062 380.097 296.188 380.165 296.337C380.317 296.623 380.399 296.949 380.533 297.242C380.591 297.395 380.677 297.533 380.787 297.645C380.897 297.757 381.027 297.842 381.168 297.893C381.305 297.9 381.439 297.936 381.565 297.998C381.645 298.068 381.706 298.163 381.74 298.271C381.984 298.857 382.177 299.574 382.696 299.841C382.879 299.935 383.077 299.986 383.279 299.99C383.491 300.006 383.704 299.961 383.897 299.86C384.088 299.74 384.247 299.564 384.357 299.352C384.651 298.727 384.75 298.009 384.637 297.314C384.548 296.436 384.272 295.594 383.833 294.859C383.37 294.117 382.739 293.526 382.004 293.146C381.27 292.766 380.458 292.611 379.652 292.696C379.371 292.737 379.093 292.798 378.818 292.879C377.805 293.125 376.897 293.753 376.247 294.657C376.102 294.886 375.942 295.104 375.769 295.308C376.049 295.295 376.323 295.269 376.597 295.262Z" fill="black"/>
<path opacity="0.1" d="M372.626 305.005C372.626 305.005 372.807 306.627 372.183 307.03C371.559 307.434 372.626 305.005 372.626 305.005Z" fill="black"/>
<path opacity="0.1" d="M375.874 303.103C375.874 303.103 373.676 303.26 373.664 303.611C373.652 303.963 375.874 303.103 375.874 303.103Z" fill="black"/>
<path opacity="0.2" d="M388.13 299.268L379.967 304.197L372.247 308.86L369.985 306.77L374.521 297.828L378.335 290.3C378.622 290.405 378.93 290.426 379.227 290.358C379.491 290.259 379.748 290.137 379.996 289.994C381.273 289.427 382.713 290.463 383.43 291.759C384.148 293.055 384.416 294.611 385.028 295.985C385.237 296.515 385.565 296.977 385.978 297.327C386.184 297.501 386.428 297.61 386.684 297.643C386.941 297.676 387.2 297.632 387.436 297.516L388.13 299.268Z" fill="white"/>
<path d="M371.793 306.672H370.271C369.93 306.672 369.653 306.981 369.653 307.362V312.162C369.653 312.543 369.93 312.853 370.271 312.853H371.793C372.134 312.853 372.411 312.543 372.411 312.162V307.362C372.411 306.981 372.134 306.672 371.793 306.672Z" fill="#3F3D56"/>
<path opacity="0.2" d="M371.793 306.672H370.271C369.93 306.672 369.653 306.981 369.653 307.362V312.162C369.653 312.543 369.93 312.853 370.271 312.853H371.793C372.134 312.853 372.411 312.543 372.411 312.162V307.362C372.411 306.981 372.134 306.672 371.793 306.672Z" fill="black"/>
<path d="M370.941 308.952C371.17 308.952 371.355 308.745 371.355 308.489C371.355 308.234 371.17 308.027 370.941 308.027C370.713 308.027 370.527 308.234 370.527 308.489C370.527 308.745 370.713 308.952 370.941 308.952Z" fill="#3F3D56"/>
<path d="M369.688 316.298C369.688 316.298 370.148 313.895 369.536 313.133C368.924 312.371 369.116 308.378 370.055 308.463C370.994 308.548 372.387 311.719 372.16 312.371C371.933 313.022 371.041 316.467 371.041 316.467L369.688 316.298Z" fill="#3F3D56"/>
<path d="M59.9267 83.9913C60.2874 83.9913 60.5797 83.6647 60.5797 83.2619C60.5797 82.859 60.2874 82.5325 59.9267 82.5325C59.566 82.5325 59.2737 82.859 59.2737 83.2619C59.2737 83.6647 59.566 83.9913 59.9267 83.9913Z" fill="white"/>
<path d="M129.696 67.7623C130.056 67.7623 130.349 67.4357 130.349 67.0329C130.349 66.63 130.056 66.3035 129.696 66.3035C129.335 66.3035 129.042 66.63 129.042 67.0329C129.042 67.4357 129.335 67.7623 129.696 67.7623Z" fill="white"/>
<path d="M444.996 68.7C445.356 68.7 445.649 68.3734 445.649 67.9706C445.649 67.5678 445.356 67.2412 444.996 67.2412C444.635 67.2412 444.343 67.5678 444.343 67.9706C444.343 68.3734 444.635 68.7 444.996 68.7Z" fill="white"/>
<path d="M59.9267 116.163C60.2874 116.163 60.5797 115.836 60.5797 115.433C60.5797 115.031 60.2874 114.704 59.9267 114.704C59.566 114.704 59.2737 115.031 59.2737 115.433C59.2737 115.836 59.566 116.163 59.9267 116.163Z" fill="white"/>
<path d="M465.91 94.0792C466.271 94.0792 466.563 93.7526 466.563 93.3498C466.563 92.9469 466.271 92.6204 465.91 92.6204C465.549 92.6204 465.257 92.9469 465.257 93.3498C465.257 93.7526 465.549 94.0792 465.91 94.0792Z" fill="white"/>
<path d="M471.309 137.765C471.67 137.765 471.962 137.438 471.962 137.035C471.962 136.633 471.67 136.306 471.309 136.306C470.948 136.306 470.656 136.633 470.656 137.035C470.656 137.438 470.948 137.765 471.309 137.765Z" fill="white"/>
<path d="M601.36 86.9415C601.721 86.9415 602.013 86.6149 602.013 86.2121C602.013 85.8092 601.721 85.4827 601.36 85.4827C600.999 85.4827 600.707 85.8092 600.707 86.2121C600.707 86.6149 600.999 86.9415 601.36 86.9415Z" fill="white"/>
<path d="M208.694 53.7214C209.054 53.7214 209.347 53.3948 209.347 52.992C209.347 52.5891 209.054 52.2626 208.694 52.2626C208.333 52.2626 208.041 52.5891 208.041 52.992C208.041 53.3948 208.333 53.7214 208.694 53.7214Z" fill="white"/>
<path d="M518.508 61.2107C518.868 61.2107 519.161 60.8842 519.161 60.4814C519.161 60.0785 518.868 59.752 518.508 59.752C518.147 59.752 517.854 60.0785 517.854 60.4814C517.854 60.8842 518.147 61.2107 518.508 61.2107Z" fill="white"/>
<path d="M456.283 183.352C456.644 183.352 456.936 183.026 456.936 182.623C456.936 182.22 456.644 181.893 456.283 181.893C455.923 181.893 455.63 182.22 455.63 182.623C455.63 183.026 455.923 183.352 456.283 183.352Z" fill="white"/>
<path d="M129.037 213.081C129.397 213.081 129.69 212.755 129.69 212.352C129.69 211.949 129.397 211.623 129.037 211.623C128.676 211.623 128.384 211.949 128.384 212.352C128.384 212.755 128.676 213.081 129.037 213.081Z" fill="white"/>
<path d="M465.257 190.731C465.617 190.731 465.91 190.404 465.91 190.001C465.91 189.599 465.617 189.272 465.257 189.272C464.896 189.272 464.604 189.599 464.604 190.001C464.604 190.404 464.896 190.731 465.257 190.731Z" fill="white"/>
<path d="M623.301 136.964C623.661 136.964 623.954 136.637 623.954 136.234C623.954 135.832 623.661 135.505 623.301 135.505C622.94 135.505 622.647 135.832 622.647 136.234C622.647 136.637 622.94 136.964 623.301 136.964Z" fill="white"/>
<path d="M185.033 109.032C185.394 109.032 185.686 108.705 185.686 108.302C185.686 107.9 185.394 107.573 185.033 107.573C184.673 107.573 184.38 107.9 184.38 108.302C184.38 108.705 184.673 109.032 185.033 109.032Z" fill="white"/>
</g>
<defs>
<linearGradient id="paint0_linear" x1="338.5" y1="474.446" x2="338.5" y2="-0.000528695" gradientUnits="userSpaceOnUse">
<stop stop-opacity="0.2"/>
<stop offset="0.48" stop-color="white" stop-opacity="0"/>
<stop offset="1" stop-color="white" stop-opacity="0"/>
</linearGradient>
<clipPath id="clip0">
<rect width="677" height="475" fill="white"/>
</clipPath>
</defs>
</svg>
