<svg width="700" height="600" viewBox="0 0 700 600" fill="none" xmlns="http://www.w3.org/2000/svg">
<g clip-path="url(#clip0)">
<g opacity="0.1">
<path opacity="0.1" d="M560.498 425.087C560.498 425.087 510.526 417.571 547.794 511.258C547.794 511.258 581.757 494.399 583.11 456.373C583.385 448.973 581.307 441.712 577.27 435.968C573.233 430.224 567.517 426.394 561.206 425.205L560.498 425.087Z" fill="#6C63FF"/>
<path opacity="0.1" d="M561.231 424.947C561.231 424.947 572.544 477.186 547.833 511.265" stroke="#535461" stroke-miterlimit="10"/>
<path opacity="0.1" d="M547.156 516.091C547.156 516.091 565.149 464.724 598.748 445.671C612.896 437.783 624.452 424.789 631.678 408.642C635.055 400.952 637.816 392.919 639.928 384.644" stroke="#535461" stroke-width="2" stroke-miterlimit="10"/>
<path opacity="0.1" d="M661.041 372.501C657.538 377.601 639.411 385.065 639.411 385.065C639.411 385.065 641.593 362.893 645.096 357.83C645.895 356.508 646.919 355.39 648.105 354.544C649.291 353.698 650.614 353.142 651.993 352.911C653.371 352.679 654.776 352.777 656.121 353.198C657.466 353.619 658.722 354.354 659.812 355.358C660.902 356.362 661.803 357.614 662.46 359.037C663.117 360.46 663.516 362.023 663.631 363.631C663.747 365.239 663.578 366.858 663.133 368.387C662.689 369.916 661.979 371.324 661.047 372.523L661.041 372.501Z" fill="#6C63FF"/>
<path opacity="0.1" d="M654.82 412.892C649.486 414.969 630.778 409.803 630.778 409.803C630.778 409.803 642.997 392.597 648.331 390.52C649.623 389.907 651.01 389.607 652.406 389.639C653.802 389.671 655.178 390.035 656.448 390.707C657.717 391.38 658.855 392.347 659.789 393.549C660.723 394.751 661.435 396.163 661.88 397.696C662.324 399.229 662.493 400.852 662.375 402.463C662.256 404.075 661.854 405.641 661.192 407.066C660.531 408.49 659.624 409.742 658.528 410.744C657.432 411.746 656.17 412.477 654.82 412.892Z" fill="#6C63FF"/>
<path opacity="0.1" d="M621.093 460.645C615.587 459.322 601.683 443.919 601.683 443.919C601.683 443.919 619.727 436.21 625.24 437.533C627.735 438.339 629.872 440.212 631.219 442.774C632.565 445.336 633.021 448.395 632.494 451.332C631.967 454.269 630.496 456.864 628.379 458.592C626.262 460.319 623.658 461.051 621.093 460.637V460.645Z" fill="#6C63FF"/>
<path opacity="0.1" d="M588.553 490.12C582.931 489.89 566.98 477.437 566.98 477.437C566.98 477.437 583.646 466.291 589.267 466.528C591.844 466.832 594.225 468.259 595.928 470.52C597.63 472.782 598.527 475.709 598.436 478.707C598.345 481.706 597.274 484.553 595.439 486.67C593.603 488.788 591.142 490.018 588.553 490.112V490.12Z" fill="#6C63FF"/>
<path opacity="0.1" d="M613.36 395.339C614.081 401.806 626.261 419.041 626.261 419.041C626.261 419.041 634.281 398.79 633.567 392.323C633.479 390.708 633.106 389.132 632.471 387.691C631.837 386.249 630.953 384.974 629.876 383.945C628.799 382.915 627.55 382.152 626.208 381.703C624.866 381.255 623.459 381.13 622.074 381.337C620.688 381.544 619.354 382.077 618.154 382.905C616.954 383.733 615.914 384.838 615.097 386.15C614.28 387.463 613.705 388.955 613.406 390.536C613.107 392.116 613.091 393.751 613.36 395.339Z" fill="#6C63FF"/>
<path opacity="0.1" d="M575.677 430.401C578.031 436.314 594.11 448.546 594.11 448.546C594.11 448.546 596.535 426.44 594.18 420.527C593.679 419.018 592.915 417.644 591.937 416.49C590.959 415.337 589.787 414.428 588.493 413.819C587.2 413.211 585.812 412.917 584.417 412.954C583.021 412.992 581.647 413.36 580.379 414.037C579.111 414.714 577.977 415.685 577.046 416.89C576.115 418.095 575.407 419.509 574.967 421.043C574.526 422.578 574.362 424.2 574.484 425.811C574.606 427.422 575.012 428.987 575.677 430.409V430.401Z" fill="#6C63FF"/>
<path opacity="0.1" d="M543.085 470.268C544.54 476.565 558.609 491.76 558.609 491.76C558.609 491.76 564.224 470.452 562.763 464.155C562.491 462.567 561.941 461.061 561.146 459.729C560.351 458.397 559.329 457.269 558.142 456.414C556.955 455.558 555.63 454.994 554.247 454.757C552.864 454.519 551.455 454.613 550.105 455.032C548.755 455.452 547.493 456.188 546.399 457.195C545.305 458.202 544.4 459.458 543.742 460.886C543.084 462.315 542.686 463.884 542.573 465.498C542.46 467.112 542.635 468.735 543.085 470.268Z" fill="#6C63FF"/>
<path opacity="0.25" d="M661.041 372.501C657.538 377.601 639.411 385.065 639.411 385.065C639.411 385.065 641.593 362.893 645.096 357.83C645.895 356.508 646.919 355.39 648.105 354.544C649.291 353.698 650.614 353.142 651.993 352.911C653.371 352.679 654.776 352.777 656.121 353.198C657.466 353.619 658.722 354.354 659.812 355.358C660.902 356.362 661.803 357.614 662.46 359.037C663.117 360.46 663.516 362.023 663.631 363.631C663.747 365.239 663.578 366.858 663.133 368.387C662.689 369.916 661.979 371.324 661.047 372.523L661.041 372.501Z" fill="black"/>
<path opacity="0.25" d="M654.82 412.892C649.486 414.969 630.778 409.803 630.778 409.803C630.778 409.803 642.997 392.597 648.331 390.52C649.623 389.907 651.01 389.607 652.406 389.639C653.802 389.671 655.178 390.035 656.448 390.707C657.717 391.38 658.855 392.347 659.789 393.549C660.723 394.751 661.435 396.163 661.88 397.696C662.324 399.229 662.493 400.852 662.375 402.463C662.256 404.075 661.854 405.641 661.192 407.066C660.531 408.49 659.624 409.742 658.528 410.744C657.432 411.746 656.17 412.477 654.82 412.892Z" fill="black"/>
<path opacity="0.25" d="M621.093 460.645C615.587 459.322 601.683 443.919 601.683 443.919C601.683 443.919 619.727 436.21 625.24 437.533C627.735 438.339 629.872 440.212 631.219 442.774C632.565 445.336 633.021 448.395 632.494 451.332C631.967 454.269 630.496 456.864 628.379 458.592C626.262 460.319 623.658 461.051 621.093 460.637V460.645Z" fill="black"/>
<path opacity="0.25" d="M588.553 490.12C582.931 489.89 566.98 477.437 566.98 477.437C566.98 477.437 583.646 466.291 589.267 466.528C591.844 466.832 594.225 468.259 595.928 470.52C597.63 472.782 598.527 475.709 598.436 478.707C598.345 481.706 597.274 484.553 595.439 486.67C593.603 488.788 591.142 490.018 588.553 490.112V490.12Z" fill="black"/>
<path opacity="0.25" d="M613.36 395.339C614.081 401.806 626.261 419.041 626.261 419.041C626.261 419.041 634.281 398.79 633.567 392.323C633.479 390.708 633.106 389.132 632.471 387.691C631.837 386.249 630.953 384.974 629.876 383.945C628.799 382.915 627.55 382.152 626.208 381.703C624.866 381.255 623.459 381.13 622.074 381.337C620.688 381.544 619.354 382.077 618.154 382.905C616.954 383.733 615.914 384.838 615.097 386.15C614.28 387.463 613.705 388.955 613.406 390.536C613.107 392.116 613.091 393.751 613.36 395.339Z" fill="black"/>
<path opacity="0.25" d="M575.677 430.401C578.031 436.314 594.11 448.546 594.11 448.546C594.11 448.546 596.535 426.44 594.18 420.527C593.679 419.018 592.915 417.644 591.937 416.49C590.959 415.337 589.787 414.428 588.493 413.819C587.2 413.211 585.812 412.917 584.417 412.954C583.021 412.992 581.647 413.36 580.379 414.037C579.111 414.714 577.977 415.685 577.046 416.89C576.115 418.095 575.407 419.509 574.967 421.043C574.526 422.578 574.362 424.2 574.484 425.811C574.606 427.422 575.012 428.987 575.677 430.409V430.401Z" fill="black"/>
<path opacity="0.25" d="M543.085 470.268C544.54 476.565 558.609 491.76 558.609 491.76C558.609 491.76 564.224 470.452 562.763 464.155C562.491 462.567 561.941 461.061 561.146 459.729C560.351 458.397 559.329 457.269 558.142 456.414C556.955 455.558 555.63 454.994 554.247 454.757C552.864 454.519 551.455 454.613 550.105 455.032C548.755 455.452 547.493 456.188 546.399 457.195C545.305 458.202 544.4 459.458 543.742 460.886C543.084 462.315 542.686 463.884 542.573 465.498C542.46 467.112 542.635 468.735 543.085 470.268Z" fill="black"/>
<path opacity="0.1" d="M571.121 539.461C571.121 539.461 589.114 488.095 622.714 469.041C636.855 461.147 648.404 448.151 655.624 432.005C659.001 424.314 661.762 416.281 663.874 408.007" stroke="#535461" stroke-width="2" stroke-miterlimit="10"/>
<path opacity="0.1" d="M684.974 395.856C681.471 400.956 663.344 408.421 663.344 408.421C663.344 408.421 665.526 386.248 669.029 381.185C670.768 378.946 673.179 377.56 675.77 377.31C678.361 377.06 680.937 377.964 682.972 379.839C685.007 381.713 686.348 384.417 686.722 387.397C687.095 390.378 686.472 393.411 684.98 395.878L684.974 395.856Z" fill="#6C63FF"/>
<path opacity="0.1" d="M678.766 436.247C673.432 438.324 654.724 433.158 654.724 433.158C654.724 433.158 666.943 415.952 672.277 413.875C674.783 413.105 677.449 413.468 679.732 414.892C682.016 416.315 683.746 418.692 684.572 421.539C685.398 424.386 685.257 427.491 684.179 430.223C683.101 432.954 681.165 435.108 678.766 436.247Z" fill="#6C63FF"/>
<path opacity="0.1" d="M645.039 484.03C639.532 482.707 625.629 467.304 625.629 467.304C625.629 467.304 643.673 459.595 649.186 460.918C651.681 461.724 653.818 463.597 655.164 466.159C656.511 468.721 656.967 471.78 656.44 474.717C655.913 477.654 654.442 480.249 652.325 481.976C650.208 483.704 647.604 484.435 645.039 484.022V484.03Z" fill="#6C63FF"/>
<path opacity="0.1" d="M612.492 513.467C606.871 513.238 590.92 500.785 590.92 500.785C590.92 500.785 607.585 489.654 613.207 489.883C615.784 490.187 618.165 491.614 619.867 493.876C621.57 496.137 622.466 499.064 622.376 502.063C622.285 505.061 621.213 507.908 619.378 510.026C617.543 512.143 615.081 513.374 612.492 513.467Z" fill="#6C63FF"/>
<path opacity="0.1" d="M637.299 418.724C638.02 425.191 650.201 442.426 650.201 442.426C650.201 442.426 658.221 422.175 657.506 415.708C657.418 414.093 657.046 412.516 656.411 411.075C655.776 409.634 654.893 408.359 653.815 407.329C652.738 406.299 651.49 405.537 650.148 405.088C648.806 404.64 647.398 404.515 646.013 404.722C644.628 404.928 643.294 405.462 642.094 406.29C640.894 407.118 639.853 408.222 639.036 409.535C638.219 410.847 637.644 412.34 637.345 413.92C637.046 415.501 637.031 417.136 637.299 418.724Z" fill="#6C63FF"/>
<path opacity="0.1" d="M599.623 453.727C601.977 459.64 618.056 471.871 618.056 471.871C618.056 471.871 620.48 449.765 618.126 443.853C616.891 441.211 614.833 439.213 612.372 438.264C609.911 437.316 607.231 437.488 604.875 438.746C602.52 440.004 600.666 442.253 599.69 445.037C598.715 447.821 598.691 450.93 599.623 453.734V453.727Z" fill="#6C63FF"/>
<path opacity="0.1" d="M567.031 493.638C568.486 499.935 582.555 515.13 582.555 515.13C582.555 515.13 588.17 493.822 586.709 487.525C585.873 484.685 584.137 482.319 581.852 480.906C579.567 479.493 576.903 479.14 574.401 479.917C571.899 480.694 569.746 482.544 568.377 485.092C567.009 487.639 566.528 490.694 567.031 493.638Z" fill="#6C63FF"/>
</g>
<path opacity="0.1" d="M7.56085 317.786C18.6373 372.627 42.0855 420.032 79.1432 443.01C156.155 490.763 329.838 466.136 459.463 437.836C524.958 423.589 584.409 384.227 628.245 326.086L7.56085 317.786Z" fill="#6C63FF"/>
<path opacity="0.1" d="M687.303 59.6519H616.18C614.55 59.6519 612.986 58.9016 611.833 57.5662C610.68 56.2307 610.032 54.4194 610.032 52.5308C610.032 50.6421 610.68 48.8308 611.833 47.4954C612.986 46.1599 614.55 45.4097 616.18 45.4097H628.475C626.845 45.4097 625.281 44.6594 624.128 43.3239C622.975 41.9885 622.328 40.1772 622.328 38.2885C622.328 36.3999 622.975 34.5886 624.128 33.2531C625.281 31.9177 626.845 31.1674 628.475 31.1674H619.696C618.065 31.1674 616.502 30.4171 615.349 29.0817C614.196 27.7462 613.548 25.9349 613.548 24.0463C613.548 22.1576 614.196 20.3464 615.349 19.0109C616.502 17.6754 618.065 16.9252 619.696 16.9252H656.817C648.58 12.4906 638.952 9.33471 627.863 7.67915C526.643 -7.38349 490.504 2.57943 477.756 12.8528C462.028 25.4912 444.482 34.7889 425.73 39.2678C363.271 54.1753 246.477 72.1351 140.619 33.5029C88.0057 14.2866 48.8998 46.7474 25.4644 100.967H699.649C698.769 85.2096 696.134 70.6643 691.297 57.9224C690.188 59.0356 688.77 59.6495 687.303 59.6519Z" fill="#6C63FF"/>
<path opacity="0.1" d="M1.525 203.323C-1.20551 235.219 -0.276517 267.393 4.28774 299.006L628.73 325.458C646.113 302.296 660.708 276.514 672.117 248.814L1.525 203.323ZM248.5 271.578H236.205C237.835 271.578 239.399 272.329 240.552 273.664C241.704 275 242.352 276.811 242.352 278.7C242.352 280.588 241.704 282.399 240.552 283.735C239.399 285.07 237.835 285.821 236.205 285.821H165.082C163.451 285.821 161.888 285.07 160.735 283.735C159.582 282.399 158.934 280.588 158.934 278.7C158.934 276.811 159.582 275 160.735 273.664C161.888 272.329 163.451 271.578 165.082 271.578H177.377C175.746 271.578 174.183 270.828 173.03 269.493C171.877 268.157 171.229 266.346 171.229 264.457C171.229 262.569 171.877 260.757 173.03 259.422C174.183 258.086 175.746 257.336 177.377 257.336H168.597C166.967 257.336 165.403 256.586 164.25 255.25C163.097 253.915 162.45 252.104 162.45 250.215C162.45 248.326 163.097 246.515 164.25 245.18C165.403 243.844 166.967 243.094 168.597 243.094H239.72C241.351 243.094 242.914 243.844 244.067 245.18C245.22 246.515 245.868 248.326 245.868 250.215C245.868 252.104 245.22 253.915 244.067 255.25C242.914 256.586 241.351 257.336 239.72 257.336H248.5C250.13 257.336 251.694 258.086 252.847 259.422C254 260.757 254.647 262.569 254.647 264.457C254.647 266.346 254 268.157 252.847 269.493C251.694 270.828 250.13 271.578 248.5 271.578Z" fill="#6C63FF"/>
<path opacity="0.1" d="M699.681 101.462L17.9355 120.678C9.64725 145.371 4.1792 173.287 1.62701 202.222H687.737C692.216 185.225 695.53 167.844 697.646 150.242C699.687 133.236 700.504 116.783 699.681 101.462ZM140.032 164.41H127.737C129.367 164.41 130.931 165.161 132.084 166.496C133.237 167.832 133.884 169.643 133.884 171.532C133.884 173.42 133.237 175.231 132.084 176.567C130.931 177.902 129.367 178.653 127.737 178.653H56.6138C54.9834 178.653 53.4197 177.902 52.2668 176.567C51.1139 175.231 50.4662 173.42 50.4662 171.532C50.4662 169.643 51.1139 167.832 52.2668 166.496C53.4197 165.161 54.9834 164.41 56.6138 164.41H68.9089C67.2785 164.41 65.7148 163.66 64.562 162.325C63.4091 160.989 62.7614 159.178 62.7614 157.289C62.7614 155.401 63.4091 153.589 64.562 152.254C65.7148 150.918 67.2785 150.168 68.9089 150.168H60.1294C58.499 150.168 56.9353 149.418 55.7824 148.082C54.6296 146.747 53.9819 144.936 53.9819 143.047C53.9819 141.158 54.6296 139.347 55.7824 138.012C56.9353 136.676 58.499 135.926 60.1294 135.926H131.252C132.883 135.926 134.446 136.676 135.599 138.012C136.752 139.347 137.4 141.158 137.4 143.047C137.4 144.936 136.752 146.747 135.599 148.082C134.446 149.418 132.883 150.168 131.252 150.168H140.032C141.662 150.168 143.226 150.918 144.379 152.254C145.532 153.589 146.179 155.401 146.179 157.289C146.179 159.178 145.532 160.989 144.379 162.325C143.226 163.66 141.662 164.41 140.032 164.41Z" fill="#6C63FF"/>
<path d="M598.921 599.623C598.921 599.623 570.489 418.99 516.275 389.677C470.335 364.822 420.657 348.067 406.531 343.521C404.421 339.585 401.983 335.899 399.251 332.516C379.943 309.168 368.344 309.604 366.468 309.893C365.578 305.263 364.938 300.573 364.554 295.85C364.496 295.111 364.439 294.424 364.388 293.692L364.554 293.596C364.439 292.199 364.337 290.758 364.248 289.272C372.129 284.4 379.385 278.278 385.807 271.083C385.89 271.401 385.96 271.719 386.05 272.044C399.963 258.42 413.59 244.427 426.929 230.064C430.757 225.917 434.777 221.416 436.079 215.57C436.496 213.558 436.657 211.487 436.557 209.421C436.73 204.986 435.824 200.456 435.67 195.962C435.67 195.223 435.741 194.536 435.824 193.834C436.717 186.48 441.132 180.441 444.756 174.27C453.81 158.674 458.536 140.247 458.302 121.455C458.401 112.45 457.325 103.48 455.112 94.8473C452.285 83.894 446.402 72.3864 436.608 69.9918C432.818 69.0679 428.882 69.6444 425.015 69.3562C409.006 68.1736 397.024 53.0962 384.257 42.0468C368.674 28.6265 350.247 20.3416 330.929 18.0708C324.899 17.3317 318.672 17.2799 312.936 19.4972C300.054 24.4639 292.231 39.8 279.821 46.1044C270.646 50.7902 260.042 50.029 250.471 53.547C236.224 58.7946 224.133 75.7197 223.814 93.1105C223.814 93.7535 223.814 94.3965 223.814 95.0395C223.814 95.1504 223.814 95.2612 223.814 95.3647C223.654 104.152 226.366 113.103 226.583 122.098C226.583 122.911 226.593 123.726 226.615 124.544C226.545 134.256 225.543 143.997 222.487 153.125C220.84 158.039 218.722 163.73 219.067 168.645C218.875 171.653 219.379 174.477 221.185 176.775L224.267 173.627C223.233 180.107 222.714 186.682 222.716 193.272C222.716 226.487 235.758 256.227 256.328 276.242C256.448 278.454 256.562 280.824 256.673 283.352C257.158 294.305 257.541 308.045 257.432 323.019L227.342 355.058L149.985 395.708C149.985 395.708 79.2389 413.018 94.4755 528.146L101.749 599.63H166.339L166.192 600.007H262.058L262.116 599.63H490.204L490.159 600.007H499.092V599.63L598.921 599.623ZM367.036 311.726C368.991 316.411 370.53 321.314 371.63 326.36C369.372 321.504 367.704 316.311 366.672 310.927L366.768 311.127L367.036 311.726ZM257.407 326.507C257.407 327.917 257.386 329.338 257.343 330.772L257.19 331.023C257.18 329.502 257.252 327.981 257.407 326.47V326.507Z" fill="url(#paint0_linear)"/>
<path d="M392.271 344.637L379.51 485.803L311.239 510.932C311.239 510.932 222.55 491.716 245.52 436.284C261.86 396.854 261.407 326.389 259.787 288.991C259.149 273.81 258.281 264.077 258.281 264.077C258.281 264.077 374.405 146.561 364.835 252.251C362.984 272.716 362.876 288.718 363.903 301.223C368.21 353.285 392.271 344.637 392.271 344.637Z" fill="#FDC2CC"/>
<path opacity="0.03" d="M392.271 344.637L379.51 485.803L311.239 510.932C311.239 510.932 222.55 491.716 245.52 436.284C261.86 396.854 261.407 326.389 259.787 288.991C259.149 273.81 258.281 264.077 258.281 264.077C258.281 264.077 374.405 146.561 364.835 252.251C362.984 272.716 362.876 288.718 363.903 301.223C368.21 353.285 392.271 344.637 392.271 344.637Z" fill="black"/>
<path opacity="0.1" d="M364.834 250.034C362.984 270.499 362.876 286.5 363.903 299.006C347.509 309.373 328.792 313.753 310.209 311.57C291.627 309.387 274.049 300.743 259.787 286.774C259.149 271.593 258.281 261.859 258.281 261.859C258.281 261.859 374.405 144.344 364.834 250.034Z" fill="black"/>
<path d="M319.533 307.69C370.629 307.69 412.05 259.71 412.05 200.522C412.05 141.335 370.629 93.3544 319.533 93.3544C268.438 93.3544 227.017 141.335 227.017 200.522C227.017 259.71 268.438 307.69 319.533 307.69Z" fill="#FDC2CC"/>
<path opacity="0.03" d="M319.533 307.69C370.629 307.69 412.05 259.71 412.05 200.522C412.05 141.335 370.629 93.3544 319.533 93.3544C268.438 93.3544 227.017 141.335 227.017 200.522C227.017 259.71 268.438 307.69 319.533 307.69Z" fill="black"/>
<path opacity="0.1" d="M167.04 487.282C167.04 487.282 197.029 558.234 198.624 599.993L167.04 487.282Z" fill="black"/>
<path opacity="0.1" d="M493.72 527.939L485.106 600H493.72V527.939Z" fill="black"/>
<path opacity="0.1" d="M173.74 599.992L221.274 474.717C221.274 474.717 234.673 445.153 237.863 415.59C241.054 386.026 258.281 339.464 258.281 339.464C258.281 339.464 301.03 276.641 320.809 285.51C340.589 294.379 303.582 327.638 303.582 327.638C303.582 327.638 357.816 352.028 320.809 424.459C283.803 496.89 283.165 483.586 283.165 483.586L264.98 599.992H173.74Z" fill="black"/>
<path d="M172.464 599.992L219.998 474.717C219.998 474.717 233.397 445.153 236.587 415.59C238.616 396.795 246.318 371.126 251.658 354.918C255.144 344.322 260.273 334.553 266.792 326.093C280.613 308.178 305.713 279.287 319.533 285.495C339.313 294.364 302.306 327.623 302.306 327.623C302.306 327.623 356.54 352.013 319.533 424.444C282.527 496.875 281.889 483.571 281.889 483.571L263.704 599.978L172.464 599.992Z" fill="#FDC2CC"/>
<path opacity="0.15" d="M347.926 142.504C348.983 142.504 349.84 141.511 349.84 140.286C349.84 139.062 348.983 138.069 347.926 138.069C346.869 138.069 346.012 139.062 346.012 140.286C346.012 141.511 346.869 142.504 347.926 142.504Z" fill="white"/>
<path opacity="0.15" d="M338.994 146.938C340.051 146.938 340.908 145.946 340.908 144.721C340.908 143.496 340.051 142.504 338.994 142.504C337.937 142.504 337.08 143.496 337.08 144.721C337.08 145.946 337.937 146.938 338.994 146.938Z" fill="white"/>
<path opacity="0.1" d="M253.808 65.4685C263.041 62.0096 273.288 62.756 282.144 58.1589C294.12 51.9358 301.668 36.8731 314.097 31.9951C319.635 29.8222 325.646 29.9035 331.458 30.5983C350.15 32.8516 367.95 40.9986 382.923 54.153C395.244 65.0103 406.805 79.8142 422.252 80.9746C425.985 81.2555 429.781 80.6863 433.437 81.5954C442.906 83.9457 448.578 95.2464 451.302 105.985C454.454 118.712 455.193 132.078 453.469 145.167C451.744 158.256 447.597 170.758 441.311 181.816C437.814 187.876 433.552 193.811 432.691 201.032C431.848 208.113 434.452 215.452 432.933 222.385C431.657 228.127 427.829 232.547 424.103 236.619C411.235 250.716 398.085 264.451 384.652 277.824C377.672 252.133 387.913 224.469 386.318 197.603C385.679 187.137 382.489 175.711 374.52 170.774C367.061 166.162 357.529 168.557 349.981 164.122C341.559 159.207 338.1 147.567 331.733 139.51C320.886 125.763 302.057 123.99 286.891 130.198C271.725 136.406 259.327 149.178 247.332 161.631L225.53 184.285C221.274 178.727 224.503 170.197 226.806 163.25C230.239 152.836 230.992 141.609 230.762 130.553C230.577 121.684 227.935 112.925 228.089 104.293C228.395 87.2642 240.058 70.6199 253.808 65.4685Z" fill="black"/>
<path d="M253.808 63.2512C263.041 59.7923 273.288 60.5387 282.144 55.9416C294.12 49.7185 301.668 34.6558 314.097 29.7779C319.635 27.6049 325.646 27.6862 331.458 28.381C350.15 30.6343 367.95 38.7813 382.923 51.9358C395.244 62.793 406.805 77.5969 422.252 78.7573C425.985 79.0382 429.781 78.4691 433.437 79.3781C442.906 81.7284 448.578 93.0291 451.302 103.768C454.454 116.495 455.193 129.861 453.469 142.95C451.744 156.038 447.597 168.54 441.311 179.599C437.814 185.659 433.552 191.594 432.691 198.815C431.848 205.895 434.452 213.235 432.933 220.167C431.657 225.91 427.829 230.33 424.103 234.402C411.235 248.499 398.085 262.234 384.652 275.606C377.672 249.916 387.913 222.251 386.318 195.386C385.679 184.92 382.489 173.494 374.52 168.557C367.061 163.945 357.529 166.339 349.981 161.905C341.559 156.99 338.1 145.349 331.733 137.293C320.886 123.546 302.057 121.772 286.891 127.981C271.725 134.189 259.327 146.96 247.332 159.414L225.53 182.067C221.274 176.509 224.503 167.98 226.806 161.033C230.239 150.619 230.992 139.392 230.762 128.335C230.577 119.466 227.935 110.708 228.089 102.076C228.395 85.047 240.058 68.4027 253.808 63.2512Z" fill="#865A61"/>
</g>
<defs>
<linearGradient id="paint0_linear" x1="345.617" y1="599.993" x2="345.617" y2="17.5756" gradientUnits="userSpaceOnUse">
<stop stop-color="#808080" stop-opacity="0.25"/>
<stop offset="0.54" stop-color="#808080" stop-opacity="0.12"/>
<stop offset="1" stop-color="#808080" stop-opacity="0.1"/>
</linearGradient>
<clipPath id="clip0">
<rect width="700" height="600" fill="white"/>
</clipPath>
</defs>
</svg>
